<mxfile host="app.diagrams.net" modified="2024-04-02T11:04:14.696Z" agent="Mozilla/5.0 (Macintosh; Intel Mac OS X 10_15_7) AppleWebKit/537.36 (KHTML, like Gecko) Chrome/123.0.0.0 Safari/537.36" etag="KzEF_GNMoLlyxN35_Ddb" version="24.2.1" type="device">
  <diagram name="Page-1" id="1-gvqngFdQwrXpcYUAnJ">
    <mxGraphModel dx="1242" dy="4729" grid="1" gridSize="10" guides="1" tooltips="1" connect="1" arrows="1" fold="1" page="1" pageScale="1" pageWidth="2100" pageHeight="4000" math="0" shadow="0">
      <root>
        <mxCell id="0" />
        <mxCell id="1" parent="0" />
        <mxCell id="cs07YmqNhHA9uiwkHRl_-363" value="" style="group" parent="1" vertex="1" connectable="0">
          <mxGeometry x="21" y="-3850" width="339.5" height="146.00000000000003" as="geometry" />
        </mxCell>
        <mxCell id="cs07YmqNhHA9uiwkHRl_-340" value="" style="rounded=1;whiteSpace=wrap;html=1;arcSize=11;rotation=90;container=0;" parent="cs07YmqNhHA9uiwkHRl_-363" vertex="1">
          <mxGeometry x="96.75" y="-96.74999999999999" width="146" height="339.5" as="geometry" />
        </mxCell>
        <mxCell id="cs07YmqNhHA9uiwkHRl_-341" value="&lt;font color=&quot;#cc0000&quot; style=&quot;font-size: 16px;&quot;&gt;&lt;b&gt;&quot;int&quot;&lt;/b&gt;&lt;/font&gt;" style="rounded=1;whiteSpace=wrap;html=1;arcSize=50;rotation=0;container=0;" parent="cs07YmqNhHA9uiwkHRl_-363" vertex="1">
          <mxGeometry x="70" y="10.500000000000028" width="120" height="60" as="geometry" />
        </mxCell>
        <mxCell id="cs07YmqNhHA9uiwkHRl_-342" value="&lt;font color=&quot;#cc0000&quot; style=&quot;font-size: 16px;&quot;&gt;&lt;b&gt;&quot;char&quot;&lt;/b&gt;&lt;/font&gt;" style="rounded=1;whiteSpace=wrap;html=1;arcSize=50;rotation=0;container=0;" parent="cs07YmqNhHA9uiwkHRl_-363" vertex="1">
          <mxGeometry x="210" y="10.500000000000028" width="120" height="60" as="geometry" />
        </mxCell>
        <mxCell id="cs07YmqNhHA9uiwkHRl_-343" value="&lt;font color=&quot;#cc0000&quot; style=&quot;font-size: 16px;&quot;&gt;&lt;b&gt;&quot;boolean&quot;&lt;/b&gt;&lt;/font&gt;" style="rounded=1;whiteSpace=wrap;html=1;arcSize=50;rotation=0;container=0;" parent="cs07YmqNhHA9uiwkHRl_-363" vertex="1">
          <mxGeometry x="70" y="80.50000000000003" width="116" height="57" as="geometry" />
        </mxCell>
        <mxCell id="cs07YmqNhHA9uiwkHRl_-345" value="&lt;font size=&quot;1&quot; color=&quot;#cc0000&quot;&gt;&lt;b style=&quot;font-size: 16px;&quot;&gt;TYPE&lt;/b&gt;&lt;/font&gt;" style="text;html=1;align=center;verticalAlign=middle;whiteSpace=wrap;rounded=0;rotation=0;container=0;" parent="cs07YmqNhHA9uiwkHRl_-363" vertex="1">
          <mxGeometry x="4" y="10.500000000000028" width="60" height="30" as="geometry" />
        </mxCell>
        <mxCell id="cs07YmqNhHA9uiwkHRl_-346" value="&lt;font color=&quot;#cc0000&quot; style=&quot;font-size: 16px;&quot;&gt;&lt;b&gt;IDENTIFIER&lt;/b&gt;&lt;/font&gt;" style="rounded=1;whiteSpace=wrap;html=1;arcSize=50;container=0;" parent="cs07YmqNhHA9uiwkHRl_-363" vertex="1">
          <mxGeometry x="210" y="79.00000000000003" width="120" height="60" as="geometry" />
        </mxCell>
        <mxCell id="cs07YmqNhHA9uiwkHRl_-364" value="" style="group" parent="1" vertex="1" connectable="0">
          <mxGeometry x="401" y="-3850" width="760" height="225" as="geometry" />
        </mxCell>
        <mxCell id="cs07YmqNhHA9uiwkHRl_-349" value="" style="rounded=1;whiteSpace=wrap;html=1;arcSize=6;rotation=90;" parent="cs07YmqNhHA9uiwkHRl_-364" vertex="1">
          <mxGeometry x="117.5" y="-117.49999999999999" width="225" height="460" as="geometry" />
        </mxCell>
        <mxCell id="cs07YmqNhHA9uiwkHRl_-350" value="&lt;font color=&quot;#cc0000&quot; style=&quot;font-size: 16px;&quot;&gt;&lt;b&gt;&quot;+&quot;&lt;/b&gt;&lt;/font&gt;" style="rounded=1;whiteSpace=wrap;html=1;arcSize=50;rotation=0;" parent="cs07YmqNhHA9uiwkHRl_-364" vertex="1">
          <mxGeometry x="55" y="10.000000000000014" width="120" height="60" as="geometry" />
        </mxCell>
        <mxCell id="cs07YmqNhHA9uiwkHRl_-351" value="&lt;font color=&quot;#cc0000&quot; style=&quot;font-size: 16px;&quot;&gt;&lt;b&gt;&quot;-&quot;&lt;/b&gt;&lt;/font&gt;" style="rounded=1;whiteSpace=wrap;html=1;arcSize=50;rotation=0;" parent="cs07YmqNhHA9uiwkHRl_-364" vertex="1">
          <mxGeometry x="190" y="10.000000000000014" width="120" height="60" as="geometry" />
        </mxCell>
        <mxCell id="cs07YmqNhHA9uiwkHRl_-352" value="&lt;font color=&quot;#cc0000&quot; style=&quot;font-size: 16px;&quot;&gt;&lt;b&gt;&quot;*&quot;&lt;/b&gt;&lt;/font&gt;" style="rounded=1;whiteSpace=wrap;html=1;arcSize=50;rotation=0;" parent="cs07YmqNhHA9uiwkHRl_-364" vertex="1">
          <mxGeometry x="327" y="10.000000000000014" width="120" height="60" as="geometry" />
        </mxCell>
        <mxCell id="cs07YmqNhHA9uiwkHRl_-354" value="&lt;font color=&quot;#cc0000&quot; style=&quot;font-size: 16px;&quot;&gt;&lt;b&gt;&quot;&amp;amp;&quot;&lt;/b&gt;&lt;/font&gt;" style="rounded=1;whiteSpace=wrap;html=1;arcSize=50;rotation=0;" parent="cs07YmqNhHA9uiwkHRl_-364" vertex="1">
          <mxGeometry x="190" y="85.00000000000001" width="120" height="60" as="geometry" />
        </mxCell>
        <mxCell id="cs07YmqNhHA9uiwkHRl_-355" value="&lt;font color=&quot;#cc0000&quot; style=&quot;font-size: 16px;&quot;&gt;&lt;b&gt;&quot;|&quot;&lt;/b&gt;&lt;/font&gt;" style="rounded=1;whiteSpace=wrap;html=1;arcSize=50;rotation=0;" parent="cs07YmqNhHA9uiwkHRl_-364" vertex="1">
          <mxGeometry x="327" y="85.00000000000001" width="120" height="60" as="geometry" />
        </mxCell>
        <mxCell id="cs07YmqNhHA9uiwkHRl_-356" value="&lt;font color=&quot;#cc0000&quot; style=&quot;font-size: 16px;&quot;&gt;&lt;b&gt;&quot;&amp;lt;&quot;&lt;/b&gt;&lt;/font&gt;" style="rounded=1;whiteSpace=wrap;html=1;arcSize=50;rotation=0;" parent="cs07YmqNhHA9uiwkHRl_-364" vertex="1">
          <mxGeometry x="55" y="155" width="120" height="60" as="geometry" />
        </mxCell>
        <mxCell id="cs07YmqNhHA9uiwkHRl_-357" value="&lt;font color=&quot;#cc0000&quot; style=&quot;font-size: 16px;&quot;&gt;&lt;b&gt;&quot;&amp;gt;&quot;&lt;/b&gt;&lt;/font&gt;" style="rounded=1;whiteSpace=wrap;html=1;arcSize=50;rotation=0;" parent="cs07YmqNhHA9uiwkHRl_-364" vertex="1">
          <mxGeometry x="190" y="155" width="120" height="60" as="geometry" />
        </mxCell>
        <mxCell id="cs07YmqNhHA9uiwkHRl_-359" value="&lt;font size=&quot;1&quot; color=&quot;#cc0000&quot;&gt;&lt;b style=&quot;font-size: 16px;&quot;&gt;OP&lt;/b&gt;&lt;/font&gt;" style="text;html=1;align=center;verticalAlign=middle;whiteSpace=wrap;rounded=0;rotation=0;" parent="cs07YmqNhHA9uiwkHRl_-364" vertex="1">
          <mxGeometry x="1" y="10.000000000000014" width="60" height="30" as="geometry" />
        </mxCell>
        <mxCell id="cs07YmqNhHA9uiwkHRl_-353" value="&lt;font color=&quot;#cc0000&quot; style=&quot;font-size: 16px;&quot;&gt;&lt;b&gt;&quot;/&quot;&lt;/b&gt;&lt;/font&gt;" style="rounded=1;whiteSpace=wrap;html=1;arcSize=50;rotation=0;" parent="cs07YmqNhHA9uiwkHRl_-364" vertex="1">
          <mxGeometry x="55" y="85.00000000000001" width="120" height="60" as="geometry" />
        </mxCell>
        <mxCell id="cs07YmqNhHA9uiwkHRl_-361" value="&lt;font color=&quot;#cc0000&quot; style=&quot;font-size: 16px;&quot;&gt;&lt;b&gt;&quot;=&quot;&lt;/b&gt;&lt;/font&gt;" style="rounded=1;whiteSpace=wrap;html=1;arcSize=50;rotation=0;" parent="cs07YmqNhHA9uiwkHRl_-364" vertex="1">
          <mxGeometry x="327" y="155" width="120" height="60" as="geometry" />
        </mxCell>
        <mxCell id="cs07YmqNhHA9uiwkHRl_-446" value="" style="group" parent="1" vertex="1" connectable="0">
          <mxGeometry x="901" y="-3850" width="339.5" height="146.00000000000003" as="geometry" />
        </mxCell>
        <mxCell id="cs07YmqNhHA9uiwkHRl_-447" value="" style="rounded=1;whiteSpace=wrap;html=1;arcSize=11;rotation=90;container=0;" parent="cs07YmqNhHA9uiwkHRl_-446" vertex="1">
          <mxGeometry x="96.75" y="-96.74999999999999" width="146" height="339.5" as="geometry" />
        </mxCell>
        <mxCell id="cs07YmqNhHA9uiwkHRl_-448" value="&lt;font color=&quot;#cc0000&quot; style=&quot;font-size: 16px;&quot;&gt;&lt;b&gt;&quot;true&quot;&lt;/b&gt;&lt;/font&gt;" style="rounded=1;whiteSpace=wrap;html=1;arcSize=50;rotation=0;container=0;" parent="cs07YmqNhHA9uiwkHRl_-446" vertex="1">
          <mxGeometry x="80" y="10.500000000000028" width="120" height="60" as="geometry" />
        </mxCell>
        <mxCell id="cs07YmqNhHA9uiwkHRl_-449" value="&lt;font color=&quot;#cc0000&quot; style=&quot;font-size: 16px;&quot;&gt;&lt;b&gt;&quot;false&quot;&lt;/b&gt;&lt;/font&gt;" style="rounded=1;whiteSpace=wrap;html=1;arcSize=50;rotation=0;container=0;" parent="cs07YmqNhHA9uiwkHRl_-446" vertex="1">
          <mxGeometry x="210" y="10.500000000000028" width="120" height="60" as="geometry" />
        </mxCell>
        <mxCell id="cs07YmqNhHA9uiwkHRl_-451" value="&lt;font size=&quot;1&quot; color=&quot;#cc0000&quot;&gt;&lt;b style=&quot;font-size: 14px;&quot;&gt;KEYWORD&lt;/b&gt;&lt;/font&gt;" style="text;html=1;align=center;verticalAlign=middle;whiteSpace=wrap;rounded=0;rotation=0;container=0;" parent="cs07YmqNhHA9uiwkHRl_-446" vertex="1">
          <mxGeometry x="10" y="10.500000000000028" width="60" height="30" as="geometry" />
        </mxCell>
        <mxCell id="cs07YmqNhHA9uiwkHRl_-452" value="&lt;font color=&quot;#cc0000&quot; style=&quot;font-size: 16px;&quot;&gt;&lt;b&gt;&quot;this&quot;&lt;/b&gt;&lt;/font&gt;" style="rounded=1;whiteSpace=wrap;html=1;arcSize=50;container=0;" parent="cs07YmqNhHA9uiwkHRl_-446" vertex="1">
          <mxGeometry x="210" y="79.00000000000003" width="120" height="60" as="geometry" />
        </mxCell>
        <mxCell id="cs07YmqNhHA9uiwkHRl_-454" value="&lt;font color=&quot;#cc0000&quot; style=&quot;font-size: 16px;&quot;&gt;&lt;b&gt;&quot;null&quot;&lt;/b&gt;&lt;/font&gt;" style="rounded=1;whiteSpace=wrap;html=1;arcSize=50;rotation=0;container=0;" parent="cs07YmqNhHA9uiwkHRl_-446" vertex="1">
          <mxGeometry x="80" y="79.00000000000003" width="120" height="60" as="geometry" />
        </mxCell>
        <mxCell id="cs07YmqNhHA9uiwkHRl_-514" value="" style="group" parent="1" vertex="1" connectable="0">
          <mxGeometry x="21" y="-2830" width="1100" height="140" as="geometry" />
        </mxCell>
        <mxCell id="cs07YmqNhHA9uiwkHRl_-145" style="edgeStyle=orthogonalEdgeStyle;curved=0;rounded=1;orthogonalLoop=1;jettySize=auto;html=1;exitX=1;exitY=0.5;exitDx=0;exitDy=0;entryX=0;entryY=0.5;entryDx=0;entryDy=0;endArrow=block;endFill=1;strokeWidth=2;" parent="cs07YmqNhHA9uiwkHRl_-514" source="cs07YmqNhHA9uiwkHRl_-137" edge="1">
          <mxGeometry relative="1" as="geometry">
            <mxPoint x="160" y="30" as="targetPoint" />
          </mxGeometry>
        </mxCell>
        <mxCell id="cs07YmqNhHA9uiwkHRl_-137" value="&lt;font size=&quot;1&quot; style=&quot;&quot;&gt;&lt;b style=&quot;font-size: 15px;&quot;&gt;parameterList =&lt;/b&gt;&lt;/font&gt;" style="rounded=1;whiteSpace=wrap;html=1;fillColor=#dae8fc;strokeColor=#6c8ebf;" parent="cs07YmqNhHA9uiwkHRl_-514" vertex="1">
          <mxGeometry width="120" height="60" as="geometry" />
        </mxCell>
        <mxCell id="cs07YmqNhHA9uiwkHRl_-163" style="edgeStyle=orthogonalEdgeStyle;curved=0;rounded=1;orthogonalLoop=1;jettySize=auto;html=1;exitX=1;exitY=0.5;exitDx=0;exitDy=0;entryX=0;entryY=0.5;entryDx=0;entryDy=0;endArrow=block;endFill=1;strokeWidth=2;" parent="cs07YmqNhHA9uiwkHRl_-514" source="cs07YmqNhHA9uiwkHRl_-146" target="cs07YmqNhHA9uiwkHRl_-150" edge="1">
          <mxGeometry relative="1" as="geometry" />
        </mxCell>
        <mxCell id="cs07YmqNhHA9uiwkHRl_-414" style="edgeStyle=orthogonalEdgeStyle;curved=0;rounded=1;orthogonalLoop=1;jettySize=auto;html=1;exitX=1;exitY=0.5;exitDx=0;exitDy=0;entryX=0;entryY=0.5;entryDx=0;entryDy=0;endArrow=block;endFill=1;strokeWidth=2;" parent="cs07YmqNhHA9uiwkHRl_-514" source="cs07YmqNhHA9uiwkHRl_-146" target="cs07YmqNhHA9uiwkHRl_-161" edge="1">
          <mxGeometry relative="1" as="geometry" />
        </mxCell>
        <mxCell id="cs07YmqNhHA9uiwkHRl_-146" value="&lt;font color=&quot;#cc0000&quot; style=&quot;font-size: 16px;&quot;&gt;&lt;b&gt;IDENTIFIER&lt;/b&gt;&lt;/font&gt;" style="rounded=1;whiteSpace=wrap;html=1;arcSize=50;" parent="cs07YmqNhHA9uiwkHRl_-514" vertex="1">
          <mxGeometry x="320" width="120" height="60" as="geometry" />
        </mxCell>
        <mxCell id="cs07YmqNhHA9uiwkHRl_-161" value="" style="shape=sumEllipse;perimeter=ellipsePerimeter;whiteSpace=wrap;html=1;backgroundOutline=1;fillColor=#dae8fc;strokeColor=#000000;" parent="cs07YmqNhHA9uiwkHRl_-514" vertex="1">
          <mxGeometry x="1040" width="60" height="60" as="geometry" />
        </mxCell>
        <mxCell id="cs07YmqNhHA9uiwkHRl_-415" style="edgeStyle=orthogonalEdgeStyle;curved=0;rounded=1;orthogonalLoop=1;jettySize=auto;html=1;exitX=1;exitY=0.5;exitDx=0;exitDy=0;entryX=0;entryY=0.5;entryDx=0;entryDy=0;endArrow=block;endFill=1;strokeWidth=2;" parent="cs07YmqNhHA9uiwkHRl_-514" source="cs07YmqNhHA9uiwkHRl_-410" target="cs07YmqNhHA9uiwkHRl_-146" edge="1">
          <mxGeometry relative="1" as="geometry" />
        </mxCell>
        <mxCell id="cs07YmqNhHA9uiwkHRl_-410" value="&lt;font color=&quot;#cc0000&quot; style=&quot;font-size: 16px;&quot;&gt;&lt;b&gt;TYPE&lt;/b&gt;&lt;/font&gt;" style="rounded=1;whiteSpace=wrap;html=1;arcSize=50;" parent="cs07YmqNhHA9uiwkHRl_-514" vertex="1">
          <mxGeometry x="160" width="120" height="60" as="geometry" />
        </mxCell>
        <mxCell id="cs07YmqNhHA9uiwkHRl_-164" style="edgeStyle=orthogonalEdgeStyle;curved=0;rounded=1;orthogonalLoop=1;jettySize=auto;html=1;exitX=1;exitY=0.5;exitDx=0;exitDy=0;entryX=0;entryY=0.5;entryDx=0;entryDy=0;endArrow=block;endFill=1;strokeWidth=2;" parent="cs07YmqNhHA9uiwkHRl_-514" source="cs07YmqNhHA9uiwkHRl_-150" edge="1">
          <mxGeometry relative="1" as="geometry">
            <mxPoint x="640" y="90" as="targetPoint" />
          </mxGeometry>
        </mxCell>
        <mxCell id="cs07YmqNhHA9uiwkHRl_-150" value="&lt;font color=&quot;#cc0000&quot; style=&quot;font-size: 16px;&quot;&gt;&lt;b&gt;&quot;,&quot;&lt;/b&gt;&lt;/font&gt;" style="rounded=1;whiteSpace=wrap;html=1;arcSize=50;" parent="cs07YmqNhHA9uiwkHRl_-514" vertex="1">
          <mxGeometry x="480" y="60" width="120" height="60" as="geometry" />
        </mxCell>
        <mxCell id="cs07YmqNhHA9uiwkHRl_-166" style="edgeStyle=orthogonalEdgeStyle;curved=0;rounded=1;orthogonalLoop=1;jettySize=auto;html=1;exitX=1;exitY=0.5;exitDx=0;exitDy=0;endArrow=block;endFill=1;strokeWidth=2;" parent="cs07YmqNhHA9uiwkHRl_-514" source="cs07YmqNhHA9uiwkHRl_-158" edge="1">
          <mxGeometry relative="1" as="geometry">
            <mxPoint x="480" y="90.5" as="targetPoint" />
            <Array as="points">
              <mxPoint x="940" y="90" />
              <mxPoint x="940" y="140" />
              <mxPoint x="460" y="140" />
              <mxPoint x="460" y="91" />
            </Array>
          </mxGeometry>
        </mxCell>
        <mxCell id="cs07YmqNhHA9uiwkHRl_-413" style="edgeStyle=orthogonalEdgeStyle;curved=0;rounded=1;orthogonalLoop=1;jettySize=auto;html=1;exitX=1;exitY=0.5;exitDx=0;exitDy=0;endArrow=block;endFill=1;strokeWidth=2;" parent="cs07YmqNhHA9uiwkHRl_-514" source="cs07YmqNhHA9uiwkHRl_-158" target="cs07YmqNhHA9uiwkHRl_-161" edge="1">
          <mxGeometry relative="1" as="geometry">
            <Array as="points">
              <mxPoint x="939" y="90" />
              <mxPoint x="939" y="30" />
            </Array>
          </mxGeometry>
        </mxCell>
        <mxCell id="cs07YmqNhHA9uiwkHRl_-158" value="&lt;font color=&quot;#cc0000&quot; style=&quot;font-size: 16px;&quot;&gt;&lt;b&gt;IDENTIFIER&lt;/b&gt;&lt;/font&gt;" style="rounded=1;whiteSpace=wrap;html=1;arcSize=50;" parent="cs07YmqNhHA9uiwkHRl_-514" vertex="1">
          <mxGeometry x="800" y="60" width="120" height="60" as="geometry" />
        </mxCell>
        <mxCell id="cs07YmqNhHA9uiwkHRl_-412" style="edgeStyle=orthogonalEdgeStyle;curved=0;rounded=1;orthogonalLoop=1;jettySize=auto;html=1;exitX=1;exitY=0.5;exitDx=0;exitDy=0;entryX=0;entryY=0.5;entryDx=0;entryDy=0;endArrow=block;endFill=1;strokeWidth=2;" parent="cs07YmqNhHA9uiwkHRl_-514" source="cs07YmqNhHA9uiwkHRl_-411" target="cs07YmqNhHA9uiwkHRl_-158" edge="1">
          <mxGeometry relative="1" as="geometry" />
        </mxCell>
        <mxCell id="cs07YmqNhHA9uiwkHRl_-411" value="&lt;font color=&quot;#cc0000&quot; style=&quot;font-size: 16px;&quot;&gt;&lt;b&gt;TYPE&lt;/b&gt;&lt;/font&gt;" style="rounded=1;whiteSpace=wrap;html=1;arcSize=50;" parent="cs07YmqNhHA9uiwkHRl_-514" vertex="1">
          <mxGeometry x="640" y="60" width="120" height="60" as="geometry" />
        </mxCell>
        <mxCell id="cs07YmqNhHA9uiwkHRl_-515" value="" style="group" parent="1" vertex="1" connectable="0">
          <mxGeometry x="21" y="-3370" width="1270" height="180" as="geometry" />
        </mxCell>
        <mxCell id="cs07YmqNhHA9uiwkHRl_-44" style="edgeStyle=orthogonalEdgeStyle;curved=0;rounded=1;orthogonalLoop=1;jettySize=auto;html=1;exitX=1;exitY=0.5;exitDx=0;exitDy=0;entryX=0;entryY=0.5;entryDx=0;entryDy=0;endArrow=block;endFill=1;strokeWidth=2;" parent="cs07YmqNhHA9uiwkHRl_-515" source="cs07YmqNhHA9uiwkHRl_-41" target="cs07YmqNhHA9uiwkHRl_-42" edge="1">
          <mxGeometry relative="1" as="geometry" />
        </mxCell>
        <mxCell id="cs07YmqNhHA9uiwkHRl_-45" style="edgeStyle=orthogonalEdgeStyle;curved=0;rounded=1;orthogonalLoop=1;jettySize=auto;html=1;exitX=1;exitY=0.5;exitDx=0;exitDy=0;entryX=0;entryY=0.5;entryDx=0;entryDy=0;endArrow=block;endFill=1;strokeWidth=2;" parent="cs07YmqNhHA9uiwkHRl_-515" source="cs07YmqNhHA9uiwkHRl_-41" target="cs07YmqNhHA9uiwkHRl_-43" edge="1">
          <mxGeometry relative="1" as="geometry" />
        </mxCell>
        <mxCell id="cs07YmqNhHA9uiwkHRl_-41" value="&lt;font style=&quot;font-size: 16px;&quot;&gt;&lt;b style=&quot;&quot;&gt;classVarDec =&lt;/b&gt;&lt;/font&gt;" style="rounded=1;whiteSpace=wrap;html=1;fillColor=#dae8fc;strokeColor=#6c8ebf;" parent="cs07YmqNhHA9uiwkHRl_-515" vertex="1">
          <mxGeometry y="40" width="120" height="60" as="geometry" />
        </mxCell>
        <mxCell id="cs07YmqNhHA9uiwkHRl_-430" style="edgeStyle=orthogonalEdgeStyle;curved=0;rounded=1;orthogonalLoop=1;jettySize=auto;html=1;exitX=1;exitY=0.5;exitDx=0;exitDy=0;entryX=0;entryY=0.5;entryDx=0;entryDy=0;endArrow=block;endFill=1;strokeWidth=2;" parent="cs07YmqNhHA9uiwkHRl_-515" source="cs07YmqNhHA9uiwkHRl_-42" target="cs07YmqNhHA9uiwkHRl_-427" edge="1">
          <mxGeometry relative="1" as="geometry" />
        </mxCell>
        <mxCell id="cs07YmqNhHA9uiwkHRl_-42" value="&lt;font color=&quot;#cc0000&quot; style=&quot;font-size: 16px;&quot;&gt;&lt;b&gt;&quot;static&quot;&lt;/b&gt;&lt;/font&gt;" style="rounded=1;whiteSpace=wrap;html=1;arcSize=50;" parent="cs07YmqNhHA9uiwkHRl_-515" vertex="1">
          <mxGeometry x="160" width="120" height="60" as="geometry" />
        </mxCell>
        <mxCell id="cs07YmqNhHA9uiwkHRl_-431" style="edgeStyle=orthogonalEdgeStyle;curved=0;rounded=1;orthogonalLoop=1;jettySize=auto;html=1;exitX=1;exitY=0.5;exitDx=0;exitDy=0;entryX=0;entryY=0.5;entryDx=0;entryDy=0;endArrow=block;endFill=1;strokeWidth=2;" parent="cs07YmqNhHA9uiwkHRl_-515" source="cs07YmqNhHA9uiwkHRl_-43" target="cs07YmqNhHA9uiwkHRl_-427" edge="1">
          <mxGeometry relative="1" as="geometry" />
        </mxCell>
        <mxCell id="cs07YmqNhHA9uiwkHRl_-43" value="&lt;font color=&quot;#cc0000&quot; style=&quot;font-size: 16px;&quot;&gt;&lt;b&gt;&quot;field&quot;&lt;/b&gt;&lt;/font&gt;" style="rounded=1;whiteSpace=wrap;html=1;arcSize=50;" parent="cs07YmqNhHA9uiwkHRl_-515" vertex="1">
          <mxGeometry x="160" y="80" width="120" height="60" as="geometry" />
        </mxCell>
        <mxCell id="cs07YmqNhHA9uiwkHRl_-71" style="edgeStyle=orthogonalEdgeStyle;curved=0;rounded=1;orthogonalLoop=1;jettySize=auto;html=1;exitX=1;exitY=0.5;exitDx=0;exitDy=0;entryX=0;entryY=0.5;entryDx=0;entryDy=0;endArrow=block;endFill=1;strokeWidth=2;" parent="cs07YmqNhHA9uiwkHRl_-515" source="cs07YmqNhHA9uiwkHRl_-65" target="cs07YmqNhHA9uiwkHRl_-67" edge="1">
          <mxGeometry relative="1" as="geometry" />
        </mxCell>
        <mxCell id="cs07YmqNhHA9uiwkHRl_-72" style="edgeStyle=orthogonalEdgeStyle;curved=0;rounded=1;orthogonalLoop=1;jettySize=auto;html=1;exitX=1;exitY=0.5;exitDx=0;exitDy=0;entryX=0;entryY=0.5;entryDx=0;entryDy=0;endArrow=block;endFill=1;strokeWidth=2;" parent="cs07YmqNhHA9uiwkHRl_-515" source="cs07YmqNhHA9uiwkHRl_-65" target="cs07YmqNhHA9uiwkHRl_-68" edge="1">
          <mxGeometry relative="1" as="geometry" />
        </mxCell>
        <mxCell id="cs07YmqNhHA9uiwkHRl_-65" value="&lt;font color=&quot;#cc0000&quot; style=&quot;font-size: 16px;&quot;&gt;&lt;b&gt;IDENTIFIER&lt;/b&gt;&lt;/font&gt;" style="rounded=1;whiteSpace=wrap;html=1;arcSize=50;" parent="cs07YmqNhHA9uiwkHRl_-515" vertex="1">
          <mxGeometry x="480" y="40" width="120" height="60" as="geometry" />
        </mxCell>
        <mxCell id="cs07YmqNhHA9uiwkHRl_-80" style="edgeStyle=orthogonalEdgeStyle;curved=0;rounded=1;orthogonalLoop=1;jettySize=auto;html=1;exitX=1;exitY=0.5;exitDx=0;exitDy=0;entryX=0;entryY=0.5;entryDx=0;entryDy=0;endArrow=block;endFill=1;strokeWidth=2;" parent="cs07YmqNhHA9uiwkHRl_-515" source="cs07YmqNhHA9uiwkHRl_-67" target="cs07YmqNhHA9uiwkHRl_-79" edge="1">
          <mxGeometry relative="1" as="geometry" />
        </mxCell>
        <mxCell id="cs07YmqNhHA9uiwkHRl_-67" value="&lt;font color=&quot;#cc0000&quot; style=&quot;font-size: 16px;&quot;&gt;&lt;b&gt;&quot;;&quot;&lt;/b&gt;&lt;/font&gt;" style="rounded=1;whiteSpace=wrap;html=1;arcSize=50;" parent="cs07YmqNhHA9uiwkHRl_-515" vertex="1">
          <mxGeometry x="970" y="40" width="120" height="60" as="geometry" />
        </mxCell>
        <mxCell id="cs07YmqNhHA9uiwkHRl_-70" style="edgeStyle=orthogonalEdgeStyle;curved=0;rounded=1;orthogonalLoop=1;jettySize=auto;html=1;exitX=1;exitY=0.5;exitDx=0;exitDy=0;entryX=0;entryY=0.5;entryDx=0;entryDy=0;endArrow=block;endFill=1;strokeWidth=2;" parent="cs07YmqNhHA9uiwkHRl_-515" source="cs07YmqNhHA9uiwkHRl_-68" target="cs07YmqNhHA9uiwkHRl_-69" edge="1">
          <mxGeometry relative="1" as="geometry" />
        </mxCell>
        <mxCell id="cs07YmqNhHA9uiwkHRl_-68" value="&lt;font color=&quot;#cc0000&quot; style=&quot;font-size: 16px;&quot;&gt;&lt;b&gt;&quot;,&quot;&lt;/b&gt;&lt;/font&gt;" style="rounded=1;whiteSpace=wrap;html=1;arcSize=50;" parent="cs07YmqNhHA9uiwkHRl_-515" vertex="1">
          <mxGeometry x="640" y="100" width="120" height="60" as="geometry" />
        </mxCell>
        <mxCell id="cs07YmqNhHA9uiwkHRl_-512" style="edgeStyle=orthogonalEdgeStyle;rounded=1;orthogonalLoop=1;jettySize=auto;html=1;exitX=1;exitY=0.5;exitDx=0;exitDy=0;entryX=0;entryY=0.5;entryDx=0;entryDy=0;endArrow=block;endFill=1;curved=0;strokeWidth=2;" parent="cs07YmqNhHA9uiwkHRl_-515" source="cs07YmqNhHA9uiwkHRl_-69" target="cs07YmqNhHA9uiwkHRl_-68" edge="1">
          <mxGeometry relative="1" as="geometry">
            <Array as="points">
              <mxPoint x="943" y="130" />
              <mxPoint x="943" y="180" />
              <mxPoint x="620" y="180" />
              <mxPoint x="620" y="130" />
            </Array>
          </mxGeometry>
        </mxCell>
        <mxCell id="cs07YmqNhHA9uiwkHRl_-513" style="edgeStyle=orthogonalEdgeStyle;rounded=1;orthogonalLoop=1;jettySize=auto;html=1;exitX=1;exitY=0.5;exitDx=0;exitDy=0;entryX=0;entryY=0.5;entryDx=0;entryDy=0;endArrow=block;endFill=1;curved=0;strokeWidth=2;" parent="cs07YmqNhHA9uiwkHRl_-515" source="cs07YmqNhHA9uiwkHRl_-69" target="cs07YmqNhHA9uiwkHRl_-67" edge="1">
          <mxGeometry relative="1" as="geometry" />
        </mxCell>
        <mxCell id="cs07YmqNhHA9uiwkHRl_-69" value="&lt;font color=&quot;#cc0000&quot; style=&quot;font-size: 16px;&quot;&gt;&lt;b&gt;IDENTIFIER&lt;/b&gt;&lt;/font&gt;" style="rounded=1;whiteSpace=wrap;html=1;arcSize=50;" parent="cs07YmqNhHA9uiwkHRl_-515" vertex="1">
          <mxGeometry x="803" y="100" width="120" height="60" as="geometry" />
        </mxCell>
        <mxCell id="cs07YmqNhHA9uiwkHRl_-79" value="" style="shape=sumEllipse;perimeter=ellipsePerimeter;whiteSpace=wrap;html=1;backgroundOutline=1;fillColor=#dae8fc;strokeColor=#000000;" parent="cs07YmqNhHA9uiwkHRl_-515" vertex="1">
          <mxGeometry x="1210" y="40" width="60" height="60" as="geometry" />
        </mxCell>
        <mxCell id="cs07YmqNhHA9uiwkHRl_-432" style="edgeStyle=orthogonalEdgeStyle;curved=0;rounded=1;orthogonalLoop=1;jettySize=auto;html=1;exitX=1;exitY=0.5;exitDx=0;exitDy=0;entryX=0;entryY=0.5;entryDx=0;entryDy=0;endArrow=block;endFill=1;strokeWidth=2;" parent="cs07YmqNhHA9uiwkHRl_-515" source="cs07YmqNhHA9uiwkHRl_-427" target="cs07YmqNhHA9uiwkHRl_-65" edge="1">
          <mxGeometry relative="1" as="geometry" />
        </mxCell>
        <mxCell id="cs07YmqNhHA9uiwkHRl_-427" value="&lt;font color=&quot;#cc0000&quot; style=&quot;font-size: 16px;&quot;&gt;&lt;b&gt;TYPE&lt;/b&gt;&lt;/font&gt;" style="rounded=1;whiteSpace=wrap;html=1;arcSize=50;" parent="cs07YmqNhHA9uiwkHRl_-515" vertex="1">
          <mxGeometry x="320" y="40" width="120" height="60" as="geometry" />
        </mxCell>
        <mxCell id="cs07YmqNhHA9uiwkHRl_-516" value="" style="group" parent="1" vertex="1" connectable="0">
          <mxGeometry x="21" y="-1160" width="780" height="140" as="geometry" />
        </mxCell>
        <mxCell id="cs07YmqNhHA9uiwkHRl_-369" style="edgeStyle=orthogonalEdgeStyle;curved=0;rounded=1;orthogonalLoop=1;jettySize=auto;html=1;exitX=1;exitY=0.5;exitDx=0;exitDy=0;endArrow=block;endFill=1;strokeWidth=2;" parent="cs07YmqNhHA9uiwkHRl_-516" source="cs07YmqNhHA9uiwkHRl_-317" target="cs07YmqNhHA9uiwkHRl_-318" edge="1">
          <mxGeometry relative="1" as="geometry" />
        </mxCell>
        <mxCell id="cs07YmqNhHA9uiwkHRl_-317" value="&lt;font size=&quot;1&quot; style=&quot;&quot;&gt;&lt;b style=&quot;font-size: 16px;&quot;&gt;expression =&lt;/b&gt;&lt;/font&gt;" style="rounded=1;whiteSpace=wrap;html=1;fillColor=#dae8fc;strokeColor=#6c8ebf;" parent="cs07YmqNhHA9uiwkHRl_-516" vertex="1">
          <mxGeometry width="120" height="60" as="geometry" />
        </mxCell>
        <mxCell id="cs07YmqNhHA9uiwkHRl_-392" style="edgeStyle=orthogonalEdgeStyle;curved=0;rounded=1;orthogonalLoop=1;jettySize=auto;html=1;exitX=1;exitY=0.5;exitDx=0;exitDy=0;entryX=0;entryY=0.5;entryDx=0;entryDy=0;endArrow=block;endFill=1;strokeWidth=2;" parent="cs07YmqNhHA9uiwkHRl_-516" source="cs07YmqNhHA9uiwkHRl_-318" target="cs07YmqNhHA9uiwkHRl_-389" edge="1">
          <mxGeometry relative="1" as="geometry" />
        </mxCell>
        <mxCell id="cs07YmqNhHA9uiwkHRl_-393" style="edgeStyle=orthogonalEdgeStyle;curved=0;rounded=1;orthogonalLoop=1;jettySize=auto;html=1;exitX=1;exitY=0.5;exitDx=0;exitDy=0;entryX=0;entryY=0.5;entryDx=0;entryDy=0;endArrow=block;endFill=1;strokeWidth=2;" parent="cs07YmqNhHA9uiwkHRl_-516" source="cs07YmqNhHA9uiwkHRl_-318" target="cs07YmqNhHA9uiwkHRl_-319" edge="1">
          <mxGeometry relative="1" as="geometry" />
        </mxCell>
        <mxCell id="cs07YmqNhHA9uiwkHRl_-318" value="&lt;font style=&quot;font-size: 16px;&quot;&gt;&lt;b style=&quot;&quot;&gt;term&lt;/b&gt;&lt;/font&gt;" style="rounded=1;whiteSpace=wrap;html=1;arcSize=50;fillColor=#dae8fc;strokeColor=#6c8ebf;" parent="cs07YmqNhHA9uiwkHRl_-516" vertex="1">
          <mxGeometry x="160" width="120" height="60" as="geometry" />
        </mxCell>
        <mxCell id="cs07YmqNhHA9uiwkHRl_-319" value="" style="shape=sumEllipse;perimeter=ellipsePerimeter;whiteSpace=wrap;html=1;backgroundOutline=1;fillColor=#dae8fc;strokeColor=#000000;" parent="cs07YmqNhHA9uiwkHRl_-516" vertex="1">
          <mxGeometry x="720" width="60" height="60" as="geometry" />
        </mxCell>
        <mxCell id="cs07YmqNhHA9uiwkHRl_-394" style="edgeStyle=orthogonalEdgeStyle;curved=0;rounded=1;orthogonalLoop=1;jettySize=auto;html=1;exitX=1;exitY=0.5;exitDx=0;exitDy=0;endArrow=block;endFill=1;strokeWidth=2;" parent="cs07YmqNhHA9uiwkHRl_-516" source="cs07YmqNhHA9uiwkHRl_-320" target="cs07YmqNhHA9uiwkHRl_-319" edge="1">
          <mxGeometry relative="1" as="geometry">
            <Array as="points">
              <mxPoint x="619" y="90" />
              <mxPoint x="619" y="30" />
            </Array>
          </mxGeometry>
        </mxCell>
        <mxCell id="cs07YmqNhHA9uiwkHRl_-395" style="edgeStyle=orthogonalEdgeStyle;curved=0;rounded=1;orthogonalLoop=1;jettySize=auto;html=1;exitX=1;exitY=0.5;exitDx=0;exitDy=0;entryX=0;entryY=0.5;entryDx=0;entryDy=0;endArrow=block;endFill=1;strokeWidth=2;" parent="cs07YmqNhHA9uiwkHRl_-516" source="cs07YmqNhHA9uiwkHRl_-320" target="cs07YmqNhHA9uiwkHRl_-389" edge="1">
          <mxGeometry relative="1" as="geometry">
            <Array as="points">
              <mxPoint x="620" y="90" />
              <mxPoint x="620" y="140" />
              <mxPoint x="300" y="140" />
              <mxPoint x="300" y="90" />
            </Array>
          </mxGeometry>
        </mxCell>
        <mxCell id="cs07YmqNhHA9uiwkHRl_-320" value="&lt;font style=&quot;font-size: 16px;&quot;&gt;&lt;b style=&quot;&quot;&gt;term&lt;/b&gt;&lt;/font&gt;" style="rounded=1;whiteSpace=wrap;html=1;arcSize=50;fillColor=#dae8fc;strokeColor=#6c8ebf;" parent="cs07YmqNhHA9uiwkHRl_-516" vertex="1">
          <mxGeometry x="480" y="60" width="120" height="60" as="geometry" />
        </mxCell>
        <mxCell id="cs07YmqNhHA9uiwkHRl_-391" style="edgeStyle=orthogonalEdgeStyle;curved=0;rounded=1;orthogonalLoop=1;jettySize=auto;html=1;exitX=1;exitY=0.5;exitDx=0;exitDy=0;entryX=0;entryY=0.5;entryDx=0;entryDy=0;endArrow=block;endFill=1;strokeWidth=2;" parent="cs07YmqNhHA9uiwkHRl_-516" source="cs07YmqNhHA9uiwkHRl_-389" target="cs07YmqNhHA9uiwkHRl_-320" edge="1">
          <mxGeometry relative="1" as="geometry" />
        </mxCell>
        <mxCell id="cs07YmqNhHA9uiwkHRl_-389" value="&lt;font color=&quot;#cc0000&quot; style=&quot;font-size: 16px;&quot;&gt;&lt;b&gt;OP&lt;/b&gt;&lt;/font&gt;" style="rounded=1;whiteSpace=wrap;html=1;arcSize=50;" parent="cs07YmqNhHA9uiwkHRl_-516" vertex="1">
          <mxGeometry x="320" y="60" width="120" height="60" as="geometry" />
        </mxCell>
        <mxCell id="cs07YmqNhHA9uiwkHRl_-517" value="" style="group" parent="1" vertex="1" connectable="0">
          <mxGeometry x="21" y="-1360" width="780" height="140" as="geometry" />
        </mxCell>
        <mxCell id="cs07YmqNhHA9uiwkHRl_-311" style="edgeStyle=orthogonalEdgeStyle;curved=0;rounded=1;orthogonalLoop=1;jettySize=auto;html=1;exitX=1;exitY=0.5;exitDx=0;exitDy=0;endArrow=block;endFill=1;strokeWidth=2;" parent="cs07YmqNhHA9uiwkHRl_-517" source="cs07YmqNhHA9uiwkHRl_-306" target="cs07YmqNhHA9uiwkHRl_-307" edge="1">
          <mxGeometry relative="1" as="geometry" />
        </mxCell>
        <mxCell id="cs07YmqNhHA9uiwkHRl_-306" value="&lt;font size=&quot;1&quot; style=&quot;&quot;&gt;&lt;b style=&quot;font-size: 14px;&quot;&gt;expressionList =&lt;/b&gt;&lt;/font&gt;" style="rounded=1;whiteSpace=wrap;html=1;fillColor=#dae8fc;strokeColor=#6c8ebf;" parent="cs07YmqNhHA9uiwkHRl_-517" vertex="1">
          <mxGeometry width="120" height="60" as="geometry" />
        </mxCell>
        <mxCell id="cs07YmqNhHA9uiwkHRl_-312" style="edgeStyle=orthogonalEdgeStyle;curved=0;rounded=1;orthogonalLoop=1;jettySize=auto;html=1;exitX=1;exitY=0.5;exitDx=0;exitDy=0;endArrow=block;endFill=1;strokeWidth=2;" parent="cs07YmqNhHA9uiwkHRl_-517" source="cs07YmqNhHA9uiwkHRl_-307" target="cs07YmqNhHA9uiwkHRl_-310" edge="1">
          <mxGeometry relative="1" as="geometry" />
        </mxCell>
        <mxCell id="cs07YmqNhHA9uiwkHRl_-313" style="edgeStyle=orthogonalEdgeStyle;curved=0;rounded=1;orthogonalLoop=1;jettySize=auto;html=1;exitX=1;exitY=0.5;exitDx=0;exitDy=0;entryX=0;entryY=0.5;entryDx=0;entryDy=0;endArrow=block;endFill=1;strokeWidth=2;" parent="cs07YmqNhHA9uiwkHRl_-517" source="cs07YmqNhHA9uiwkHRl_-307" target="cs07YmqNhHA9uiwkHRl_-308" edge="1">
          <mxGeometry relative="1" as="geometry" />
        </mxCell>
        <mxCell id="cs07YmqNhHA9uiwkHRl_-307" value="&lt;font style=&quot;font-size: 16px;&quot;&gt;&lt;b style=&quot;&quot;&gt;expression&lt;/b&gt;&lt;/font&gt;" style="rounded=1;whiteSpace=wrap;html=1;arcSize=50;fillColor=#dae8fc;strokeColor=#6c8ebf;" parent="cs07YmqNhHA9uiwkHRl_-517" vertex="1">
          <mxGeometry x="160" width="120" height="60" as="geometry" />
        </mxCell>
        <mxCell id="cs07YmqNhHA9uiwkHRl_-314" style="edgeStyle=orthogonalEdgeStyle;curved=0;rounded=1;orthogonalLoop=1;jettySize=auto;html=1;exitX=1;exitY=0.5;exitDx=0;exitDy=0;entryX=0;entryY=0.5;entryDx=0;entryDy=0;endArrow=block;endFill=1;strokeWidth=2;" parent="cs07YmqNhHA9uiwkHRl_-517" source="cs07YmqNhHA9uiwkHRl_-308" target="cs07YmqNhHA9uiwkHRl_-309" edge="1">
          <mxGeometry relative="1" as="geometry" />
        </mxCell>
        <mxCell id="cs07YmqNhHA9uiwkHRl_-308" value="&lt;font color=&quot;#cc0000&quot; style=&quot;font-size: 16px;&quot;&gt;&lt;b&gt;&quot;,&quot;&lt;/b&gt;&lt;/font&gt;" style="rounded=1;whiteSpace=wrap;html=1;arcSize=50;" parent="cs07YmqNhHA9uiwkHRl_-517" vertex="1">
          <mxGeometry x="320" y="60" width="120" height="60" as="geometry" />
        </mxCell>
        <mxCell id="cs07YmqNhHA9uiwkHRl_-315" style="edgeStyle=orthogonalEdgeStyle;curved=0;rounded=1;orthogonalLoop=1;jettySize=auto;html=1;exitX=1;exitY=0.5;exitDx=0;exitDy=0;entryX=0;entryY=0.5;entryDx=0;entryDy=0;endArrow=block;endFill=1;strokeWidth=2;" parent="cs07YmqNhHA9uiwkHRl_-517" source="cs07YmqNhHA9uiwkHRl_-309" target="cs07YmqNhHA9uiwkHRl_-310" edge="1">
          <mxGeometry relative="1" as="geometry">
            <Array as="points">
              <mxPoint x="620" y="90" />
              <mxPoint x="620" y="30" />
            </Array>
          </mxGeometry>
        </mxCell>
        <mxCell id="cs07YmqNhHA9uiwkHRl_-316" style="edgeStyle=orthogonalEdgeStyle;curved=0;rounded=1;orthogonalLoop=1;jettySize=auto;html=1;exitX=1;exitY=0.5;exitDx=0;exitDy=0;entryX=0;entryY=0.5;entryDx=0;entryDy=0;endArrow=block;endFill=1;strokeWidth=2;" parent="cs07YmqNhHA9uiwkHRl_-517" source="cs07YmqNhHA9uiwkHRl_-309" target="cs07YmqNhHA9uiwkHRl_-308" edge="1">
          <mxGeometry relative="1" as="geometry">
            <Array as="points">
              <mxPoint x="620" y="90" />
              <mxPoint x="620" y="140" />
              <mxPoint x="300" y="140" />
              <mxPoint x="300" y="90" />
            </Array>
          </mxGeometry>
        </mxCell>
        <mxCell id="cs07YmqNhHA9uiwkHRl_-309" value="&lt;font style=&quot;font-size: 16px;&quot;&gt;&lt;b style=&quot;&quot;&gt;expression&lt;/b&gt;&lt;/font&gt;" style="rounded=1;whiteSpace=wrap;html=1;arcSize=50;fillColor=#dae8fc;strokeColor=#6c8ebf;" parent="cs07YmqNhHA9uiwkHRl_-517" vertex="1">
          <mxGeometry x="480" y="60" width="120" height="60" as="geometry" />
        </mxCell>
        <mxCell id="cs07YmqNhHA9uiwkHRl_-310" value="" style="shape=sumEllipse;perimeter=ellipsePerimeter;whiteSpace=wrap;html=1;backgroundOutline=1;fillColor=#dae8fc;strokeColor=#000000;" parent="cs07YmqNhHA9uiwkHRl_-517" vertex="1">
          <mxGeometry x="720" width="60" height="60" as="geometry" />
        </mxCell>
        <mxCell id="cs07YmqNhHA9uiwkHRl_-520" value="" style="group" parent="1" vertex="1" connectable="0">
          <mxGeometry x="21" y="-2630" width="1260" height="140" as="geometry" />
        </mxCell>
        <mxCell id="cs07YmqNhHA9uiwkHRl_-176" style="edgeStyle=orthogonalEdgeStyle;curved=0;rounded=1;orthogonalLoop=1;jettySize=auto;html=1;exitX=1;exitY=0.5;exitDx=0;exitDy=0;endArrow=block;endFill=1;strokeWidth=2;" parent="cs07YmqNhHA9uiwkHRl_-520" source="cs07YmqNhHA9uiwkHRl_-167" target="cs07YmqNhHA9uiwkHRl_-168" edge="1">
          <mxGeometry relative="1" as="geometry" />
        </mxCell>
        <mxCell id="cs07YmqNhHA9uiwkHRl_-167" value="&lt;font size=&quot;1&quot; style=&quot;&quot;&gt;&lt;b style=&quot;font-size: 16px;&quot;&gt;varDec =&lt;/b&gt;&lt;/font&gt;" style="rounded=1;whiteSpace=wrap;html=1;fillColor=#dae8fc;strokeColor=#6c8ebf;" parent="cs07YmqNhHA9uiwkHRl_-520" vertex="1">
          <mxGeometry width="120" height="60" as="geometry" />
        </mxCell>
        <mxCell id="cs07YmqNhHA9uiwkHRl_-406" style="edgeStyle=orthogonalEdgeStyle;curved=0;rounded=1;orthogonalLoop=1;jettySize=auto;html=1;exitX=1;exitY=0.5;exitDx=0;exitDy=0;entryX=0;entryY=0.5;entryDx=0;entryDy=0;endArrow=block;endFill=1;strokeWidth=2;" parent="cs07YmqNhHA9uiwkHRl_-520" source="cs07YmqNhHA9uiwkHRl_-168" target="cs07YmqNhHA9uiwkHRl_-405" edge="1">
          <mxGeometry relative="1" as="geometry" />
        </mxCell>
        <mxCell id="cs07YmqNhHA9uiwkHRl_-168" value="&lt;font color=&quot;#cc0000&quot; style=&quot;font-size: 16px;&quot;&gt;&lt;b&gt;&quot;var&quot;&lt;/b&gt;&lt;/font&gt;" style="rounded=1;whiteSpace=wrap;html=1;arcSize=50;" parent="cs07YmqNhHA9uiwkHRl_-520" vertex="1">
          <mxGeometry x="160" width="120" height="60" as="geometry" />
        </mxCell>
        <mxCell id="cs07YmqNhHA9uiwkHRl_-186" style="edgeStyle=orthogonalEdgeStyle;curved=0;rounded=1;orthogonalLoop=1;jettySize=auto;html=1;exitX=1;exitY=0.5;exitDx=0;exitDy=0;entryX=0;entryY=0.5;entryDx=0;entryDy=0;endArrow=block;endFill=1;strokeWidth=2;" parent="cs07YmqNhHA9uiwkHRl_-520" source="cs07YmqNhHA9uiwkHRl_-178" target="cs07YmqNhHA9uiwkHRl_-181" edge="1">
          <mxGeometry relative="1" as="geometry" />
        </mxCell>
        <mxCell id="cs07YmqNhHA9uiwkHRl_-187" style="edgeStyle=orthogonalEdgeStyle;curved=0;rounded=1;orthogonalLoop=1;jettySize=auto;html=1;exitX=1;exitY=0.5;exitDx=0;exitDy=0;entryX=0;entryY=0.5;entryDx=0;entryDy=0;endArrow=block;endFill=1;strokeWidth=2;" parent="cs07YmqNhHA9uiwkHRl_-520" source="cs07YmqNhHA9uiwkHRl_-178" target="cs07YmqNhHA9uiwkHRl_-180" edge="1">
          <mxGeometry relative="1" as="geometry" />
        </mxCell>
        <mxCell id="cs07YmqNhHA9uiwkHRl_-178" value="&lt;font color=&quot;#cc0000&quot; style=&quot;font-size: 16px;&quot;&gt;&lt;b&gt;IDENTIFIER&lt;/b&gt;&lt;/font&gt;" style="rounded=1;whiteSpace=wrap;html=1;arcSize=50;" parent="cs07YmqNhHA9uiwkHRl_-520" vertex="1">
          <mxGeometry x="480" width="120" height="60" as="geometry" />
        </mxCell>
        <mxCell id="cs07YmqNhHA9uiwkHRl_-190" style="edgeStyle=orthogonalEdgeStyle;curved=0;rounded=1;orthogonalLoop=1;jettySize=auto;html=1;exitX=1;exitY=0.5;exitDx=0;exitDy=0;entryX=0;entryY=0.5;entryDx=0;entryDy=0;endArrow=block;endFill=1;strokeWidth=2;" parent="cs07YmqNhHA9uiwkHRl_-520" source="cs07YmqNhHA9uiwkHRl_-180" target="cs07YmqNhHA9uiwkHRl_-189" edge="1">
          <mxGeometry relative="1" as="geometry" />
        </mxCell>
        <mxCell id="cs07YmqNhHA9uiwkHRl_-180" value="&lt;font color=&quot;#cc0000&quot; style=&quot;font-size: 16px;&quot;&gt;&lt;b&gt;&quot;;&quot;&lt;/b&gt;&lt;/font&gt;" style="rounded=1;whiteSpace=wrap;html=1;arcSize=50;" parent="cs07YmqNhHA9uiwkHRl_-520" vertex="1">
          <mxGeometry x="960" width="120" height="60" as="geometry" />
        </mxCell>
        <mxCell id="cs07YmqNhHA9uiwkHRl_-183" style="edgeStyle=orthogonalEdgeStyle;curved=0;rounded=1;orthogonalLoop=1;jettySize=auto;html=1;exitX=1;exitY=0.5;exitDx=0;exitDy=0;entryX=0;entryY=0.5;entryDx=0;entryDy=0;endArrow=block;endFill=1;strokeWidth=2;" parent="cs07YmqNhHA9uiwkHRl_-520" source="cs07YmqNhHA9uiwkHRl_-181" target="cs07YmqNhHA9uiwkHRl_-182" edge="1">
          <mxGeometry relative="1" as="geometry" />
        </mxCell>
        <mxCell id="cs07YmqNhHA9uiwkHRl_-181" value="&lt;font color=&quot;#cc0000&quot; style=&quot;font-size: 16px;&quot;&gt;&lt;b&gt;&quot;,&quot;&lt;/b&gt;&lt;/font&gt;" style="rounded=1;whiteSpace=wrap;html=1;arcSize=50;" parent="cs07YmqNhHA9uiwkHRl_-520" vertex="1">
          <mxGeometry x="640" y="60" width="120" height="60" as="geometry" />
        </mxCell>
        <mxCell id="cs07YmqNhHA9uiwkHRl_-185" style="edgeStyle=orthogonalEdgeStyle;curved=0;rounded=1;orthogonalLoop=1;jettySize=auto;html=1;exitX=1;exitY=0.5;exitDx=0;exitDy=0;entryX=0;entryY=0.5;entryDx=0;entryDy=0;endArrow=block;endFill=1;strokeWidth=2;" parent="cs07YmqNhHA9uiwkHRl_-520" source="cs07YmqNhHA9uiwkHRl_-182" target="cs07YmqNhHA9uiwkHRl_-181" edge="1">
          <mxGeometry relative="1" as="geometry">
            <Array as="points">
              <mxPoint x="940" y="90" />
              <mxPoint x="940" y="140" />
              <mxPoint x="620" y="140" />
              <mxPoint x="620" y="90" />
            </Array>
          </mxGeometry>
        </mxCell>
        <mxCell id="cs07YmqNhHA9uiwkHRl_-188" style="edgeStyle=orthogonalEdgeStyle;curved=0;rounded=1;orthogonalLoop=1;jettySize=auto;html=1;exitX=1;exitY=0.5;exitDx=0;exitDy=0;entryX=0;entryY=0.5;entryDx=0;entryDy=0;endArrow=block;endFill=1;strokeWidth=2;" parent="cs07YmqNhHA9uiwkHRl_-520" source="cs07YmqNhHA9uiwkHRl_-182" target="cs07YmqNhHA9uiwkHRl_-180" edge="1">
          <mxGeometry relative="1" as="geometry" />
        </mxCell>
        <mxCell id="cs07YmqNhHA9uiwkHRl_-182" value="&lt;font color=&quot;#cc0000&quot; style=&quot;font-size: 16px;&quot;&gt;&lt;b&gt;IDENTIFIER&lt;/b&gt;&lt;/font&gt;" style="rounded=1;whiteSpace=wrap;html=1;arcSize=50;" parent="cs07YmqNhHA9uiwkHRl_-520" vertex="1">
          <mxGeometry x="800" y="60" width="120" height="60" as="geometry" />
        </mxCell>
        <mxCell id="cs07YmqNhHA9uiwkHRl_-189" value="" style="shape=sumEllipse;perimeter=ellipsePerimeter;whiteSpace=wrap;html=1;backgroundOutline=1;fillColor=#dae8fc;strokeColor=#000000;" parent="cs07YmqNhHA9uiwkHRl_-520" vertex="1">
          <mxGeometry x="1200" width="60" height="60" as="geometry" />
        </mxCell>
        <mxCell id="cs07YmqNhHA9uiwkHRl_-407" style="edgeStyle=orthogonalEdgeStyle;curved=0;rounded=1;orthogonalLoop=1;jettySize=auto;html=1;exitX=1;exitY=0.5;exitDx=0;exitDy=0;entryX=0;entryY=0.5;entryDx=0;entryDy=0;endArrow=block;endFill=1;strokeWidth=2;" parent="cs07YmqNhHA9uiwkHRl_-520" source="cs07YmqNhHA9uiwkHRl_-405" target="cs07YmqNhHA9uiwkHRl_-178" edge="1">
          <mxGeometry relative="1" as="geometry" />
        </mxCell>
        <mxCell id="cs07YmqNhHA9uiwkHRl_-405" value="&lt;font color=&quot;#cc0000&quot; style=&quot;font-size: 16px;&quot;&gt;&lt;b&gt;TYPE&lt;/b&gt;&lt;/font&gt;" style="rounded=1;whiteSpace=wrap;html=1;arcSize=50;" parent="cs07YmqNhHA9uiwkHRl_-520" vertex="1">
          <mxGeometry x="320" width="120" height="60" as="geometry" />
        </mxCell>
        <mxCell id="cs07YmqNhHA9uiwkHRl_-522" value="" style="group" parent="1" vertex="1" connectable="0">
          <mxGeometry x="21" y="-960" width="1261" height="940" as="geometry" />
        </mxCell>
        <mxCell id="cs07YmqNhHA9uiwkHRl_-492" style="edgeStyle=orthogonalEdgeStyle;curved=0;rounded=1;orthogonalLoop=1;jettySize=auto;html=1;exitX=1;exitY=0.5;exitDx=0;exitDy=0;entryX=0;entryY=0.5;entryDx=0;entryDy=0;endArrow=block;endFill=1;strokeWidth=2;" parent="cs07YmqNhHA9uiwkHRl_-522" source="cs07YmqNhHA9uiwkHRl_-436" target="cs07YmqNhHA9uiwkHRl_-455" edge="1">
          <mxGeometry relative="1" as="geometry" />
        </mxCell>
        <mxCell id="cs07YmqNhHA9uiwkHRl_-499" style="edgeStyle=orthogonalEdgeStyle;rounded=1;orthogonalLoop=1;jettySize=auto;html=1;exitX=1;exitY=0.5;exitDx=0;exitDy=0;entryX=0;entryY=0.5;entryDx=0;entryDy=0;endArrow=block;endFill=1;curved=0;strokeWidth=2;" parent="cs07YmqNhHA9uiwkHRl_-522" source="cs07YmqNhHA9uiwkHRl_-436" target="cs07YmqNhHA9uiwkHRl_-470" edge="1">
          <mxGeometry relative="1" as="geometry" />
        </mxCell>
        <mxCell id="cs07YmqNhHA9uiwkHRl_-500" style="edgeStyle=orthogonalEdgeStyle;rounded=1;orthogonalLoop=1;jettySize=auto;html=1;exitX=1;exitY=0.5;exitDx=0;exitDy=0;entryX=0;entryY=0.5;entryDx=0;entryDy=0;endArrow=block;endFill=1;curved=0;strokeWidth=2;" parent="cs07YmqNhHA9uiwkHRl_-522" source="cs07YmqNhHA9uiwkHRl_-436" target="cs07YmqNhHA9uiwkHRl_-463" edge="1">
          <mxGeometry relative="1" as="geometry" />
        </mxCell>
        <mxCell id="cs07YmqNhHA9uiwkHRl_-502" style="edgeStyle=orthogonalEdgeStyle;rounded=1;orthogonalLoop=1;jettySize=auto;html=1;exitX=1;exitY=0.5;exitDx=0;exitDy=0;entryX=0;entryY=0.5;entryDx=0;entryDy=0;endArrow=block;endFill=1;curved=0;strokeWidth=2;" parent="cs07YmqNhHA9uiwkHRl_-522" source="cs07YmqNhHA9uiwkHRl_-436" target="cs07YmqNhHA9uiwkHRl_-464" edge="1">
          <mxGeometry relative="1" as="geometry" />
        </mxCell>
        <mxCell id="cs07YmqNhHA9uiwkHRl_-503" style="edgeStyle=orthogonalEdgeStyle;rounded=1;orthogonalLoop=1;jettySize=auto;html=1;exitX=1;exitY=0.5;exitDx=0;exitDy=0;entryX=0;entryY=0.5;entryDx=0;entryDy=0;endArrow=block;endFill=1;curved=0;strokeWidth=2;" parent="cs07YmqNhHA9uiwkHRl_-522" source="cs07YmqNhHA9uiwkHRl_-436" target="cs07YmqNhHA9uiwkHRl_-437" edge="1">
          <mxGeometry relative="1" as="geometry" />
        </mxCell>
        <mxCell id="cs07YmqNhHA9uiwkHRl_-504" style="edgeStyle=orthogonalEdgeStyle;rounded=1;orthogonalLoop=1;jettySize=auto;html=1;exitX=1;exitY=0.5;exitDx=0;exitDy=0;entryX=0;entryY=0.5;entryDx=0;entryDy=0;endArrow=block;endFill=1;curved=0;strokeWidth=2;" parent="cs07YmqNhHA9uiwkHRl_-522" source="cs07YmqNhHA9uiwkHRl_-436" target="cs07YmqNhHA9uiwkHRl_-438" edge="1">
          <mxGeometry relative="1" as="geometry" />
        </mxCell>
        <mxCell id="cs07YmqNhHA9uiwkHRl_-505" style="edgeStyle=orthogonalEdgeStyle;rounded=1;orthogonalLoop=1;jettySize=auto;html=1;exitX=1;exitY=0.5;exitDx=0;exitDy=0;entryX=0;entryY=0.5;entryDx=0;entryDy=0;endArrow=block;endFill=1;curved=0;strokeWidth=2;" parent="cs07YmqNhHA9uiwkHRl_-522" source="cs07YmqNhHA9uiwkHRl_-436" target="cs07YmqNhHA9uiwkHRl_-439" edge="1">
          <mxGeometry relative="1" as="geometry" />
        </mxCell>
        <mxCell id="cs07YmqNhHA9uiwkHRl_-436" value="&lt;font size=&quot;1&quot; style=&quot;&quot;&gt;&lt;b style=&quot;font-size: 16px;&quot;&gt;term =&lt;/b&gt;&lt;/font&gt;" style="rounded=1;whiteSpace=wrap;html=1;fillColor=#dae8fc;strokeColor=#6c8ebf;" parent="cs07YmqNhHA9uiwkHRl_-522" vertex="1">
          <mxGeometry width="120" height="60" as="geometry" />
        </mxCell>
        <mxCell id="cs07YmqNhHA9uiwkHRl_-507" style="edgeStyle=orthogonalEdgeStyle;rounded=1;orthogonalLoop=1;jettySize=auto;html=1;exitX=1;exitY=0.5;exitDx=0;exitDy=0;entryX=0;entryY=0.5;entryDx=0;entryDy=0;endArrow=block;endFill=1;curved=0;strokeWidth=2;" parent="cs07YmqNhHA9uiwkHRl_-522" source="cs07YmqNhHA9uiwkHRl_-437" target="cs07YmqNhHA9uiwkHRl_-468" edge="1">
          <mxGeometry relative="1" as="geometry">
            <Array as="points">
              <mxPoint x="1140" y="750" />
              <mxPoint x="1140" y="30" />
            </Array>
          </mxGeometry>
        </mxCell>
        <mxCell id="cs07YmqNhHA9uiwkHRl_-437" value="&lt;font color=&quot;#cc0000&quot; style=&quot;font-size: 16px;&quot;&gt;&lt;b&gt;INT_CONST&lt;/b&gt;&lt;/font&gt;" style="rounded=1;whiteSpace=wrap;html=1;arcSize=50;" parent="cs07YmqNhHA9uiwkHRl_-522" vertex="1">
          <mxGeometry x="160" y="720" width="120" height="60" as="geometry" />
        </mxCell>
        <mxCell id="cs07YmqNhHA9uiwkHRl_-509" style="edgeStyle=orthogonalEdgeStyle;rounded=1;orthogonalLoop=1;jettySize=auto;html=1;exitX=1;exitY=0.5;exitDx=0;exitDy=0;entryX=0;entryY=0.5;entryDx=0;entryDy=0;endArrow=block;endFill=1;curved=0;strokeWidth=2;" parent="cs07YmqNhHA9uiwkHRl_-522" source="cs07YmqNhHA9uiwkHRl_-438" target="cs07YmqNhHA9uiwkHRl_-468" edge="1">
          <mxGeometry relative="1" as="geometry">
            <Array as="points">
              <mxPoint x="1140" y="830" />
              <mxPoint x="1140" y="30" />
            </Array>
          </mxGeometry>
        </mxCell>
        <mxCell id="cs07YmqNhHA9uiwkHRl_-438" value="&lt;font color=&quot;#cc0000&quot; style=&quot;font-size: 16px;&quot;&gt;&lt;b&gt;STR_CONST&lt;/b&gt;&lt;/font&gt;" style="rounded=1;whiteSpace=wrap;html=1;arcSize=50;" parent="cs07YmqNhHA9uiwkHRl_-522" vertex="1">
          <mxGeometry x="160" y="800" width="120" height="60" as="geometry" />
        </mxCell>
        <mxCell id="cs07YmqNhHA9uiwkHRl_-510" style="edgeStyle=orthogonalEdgeStyle;rounded=1;orthogonalLoop=1;jettySize=auto;html=1;exitX=1;exitY=0.5;exitDx=0;exitDy=0;entryX=0;entryY=0.5;entryDx=0;entryDy=0;endArrow=block;endFill=1;curved=0;strokeWidth=2;" parent="cs07YmqNhHA9uiwkHRl_-522" source="cs07YmqNhHA9uiwkHRl_-439" target="cs07YmqNhHA9uiwkHRl_-468" edge="1">
          <mxGeometry relative="1" as="geometry">
            <Array as="points">
              <mxPoint x="1140" y="910" />
              <mxPoint x="1140" y="30" />
            </Array>
          </mxGeometry>
        </mxCell>
        <mxCell id="cs07YmqNhHA9uiwkHRl_-439" value="&lt;font color=&quot;#cc0000&quot; style=&quot;font-size: 16px;&quot;&gt;&lt;b&gt;KEYWORD&lt;/b&gt;&lt;/font&gt;" style="rounded=1;whiteSpace=wrap;html=1;arcSize=50;" parent="cs07YmqNhHA9uiwkHRl_-522" vertex="1">
          <mxGeometry x="160" y="880" width="120" height="60" as="geometry" />
        </mxCell>
        <mxCell id="cs07YmqNhHA9uiwkHRl_-485" style="edgeStyle=orthogonalEdgeStyle;curved=0;rounded=1;orthogonalLoop=1;jettySize=auto;html=1;exitX=1;exitY=0.5;exitDx=0;exitDy=0;entryX=0;entryY=0.5;entryDx=0;entryDy=0;endArrow=block;endFill=1;strokeWidth=2;" parent="cs07YmqNhHA9uiwkHRl_-522" source="cs07YmqNhHA9uiwkHRl_-455" target="cs07YmqNhHA9uiwkHRl_-468" edge="1">
          <mxGeometry relative="1" as="geometry" />
        </mxCell>
        <mxCell id="cs07YmqNhHA9uiwkHRl_-487" style="edgeStyle=orthogonalEdgeStyle;curved=0;rounded=1;orthogonalLoop=1;jettySize=auto;html=1;exitX=1;exitY=0.5;exitDx=0;exitDy=0;entryX=0;entryY=0.5;entryDx=0;entryDy=0;endArrow=block;endFill=1;strokeWidth=2;" parent="cs07YmqNhHA9uiwkHRl_-522" source="cs07YmqNhHA9uiwkHRl_-455" target="cs07YmqNhHA9uiwkHRl_-472" edge="1">
          <mxGeometry relative="1" as="geometry" />
        </mxCell>
        <mxCell id="cs07YmqNhHA9uiwkHRl_-488" style="edgeStyle=orthogonalEdgeStyle;curved=0;rounded=1;orthogonalLoop=1;jettySize=auto;html=1;exitX=1;exitY=0.5;exitDx=0;exitDy=0;entryX=0;entryY=0.5;entryDx=0;entryDy=0;endArrow=block;endFill=1;strokeWidth=2;" parent="cs07YmqNhHA9uiwkHRl_-522" source="cs07YmqNhHA9uiwkHRl_-455" target="cs07YmqNhHA9uiwkHRl_-458" edge="1">
          <mxGeometry relative="1" as="geometry" />
        </mxCell>
        <mxCell id="cs07YmqNhHA9uiwkHRl_-489" style="edgeStyle=orthogonalEdgeStyle;curved=0;rounded=1;orthogonalLoop=1;jettySize=auto;html=1;exitX=1;exitY=0.5;exitDx=0;exitDy=0;entryX=0;entryY=0.5;entryDx=0;entryDy=0;endArrow=block;endFill=1;strokeWidth=2;" parent="cs07YmqNhHA9uiwkHRl_-522" source="cs07YmqNhHA9uiwkHRl_-455" target="cs07YmqNhHA9uiwkHRl_-460" edge="1">
          <mxGeometry relative="1" as="geometry">
            <Array as="points">
              <mxPoint x="300" y="30" />
              <mxPoint x="300" y="390" />
            </Array>
          </mxGeometry>
        </mxCell>
        <mxCell id="cs07YmqNhHA9uiwkHRl_-455" value="&lt;font color=&quot;#cc0000&quot; style=&quot;font-size: 16px;&quot;&gt;&lt;b&gt;IDENTIFIER&lt;/b&gt;&lt;/font&gt;" style="rounded=1;whiteSpace=wrap;html=1;arcSize=50;" parent="cs07YmqNhHA9uiwkHRl_-522" vertex="1">
          <mxGeometry x="160" width="120" height="60" as="geometry" />
        </mxCell>
        <mxCell id="cs07YmqNhHA9uiwkHRl_-478" style="edgeStyle=orthogonalEdgeStyle;curved=0;rounded=1;orthogonalLoop=1;jettySize=auto;html=1;exitX=1;exitY=0.5;exitDx=0;exitDy=0;entryX=0;entryY=0.5;entryDx=0;entryDy=0;endArrow=block;endFill=1;strokeWidth=2;" parent="cs07YmqNhHA9uiwkHRl_-522" source="cs07YmqNhHA9uiwkHRl_-456" target="cs07YmqNhHA9uiwkHRl_-459" edge="1">
          <mxGeometry relative="1" as="geometry" />
        </mxCell>
        <mxCell id="cs07YmqNhHA9uiwkHRl_-456" value="&lt;font style=&quot;font-size: 16px;&quot;&gt;&lt;b style=&quot;&quot;&gt;expressionList&lt;/b&gt;&lt;/font&gt;" style="rounded=1;whiteSpace=wrap;html=1;arcSize=50;fillColor=#dae8fc;strokeColor=#6c8ebf;" parent="cs07YmqNhHA9uiwkHRl_-522" vertex="1">
          <mxGeometry x="480" y="260" width="120" height="60" as="geometry" />
        </mxCell>
        <mxCell id="cs07YmqNhHA9uiwkHRl_-506" style="edgeStyle=orthogonalEdgeStyle;rounded=1;orthogonalLoop=1;jettySize=auto;html=1;exitX=1;exitY=0.5;exitDx=0;exitDy=0;entryX=0;entryY=0.5;entryDx=0;entryDy=0;endArrow=block;endFill=1;curved=0;strokeWidth=2;" parent="cs07YmqNhHA9uiwkHRl_-522" source="cs07YmqNhHA9uiwkHRl_-457" target="cs07YmqNhHA9uiwkHRl_-468" edge="1">
          <mxGeometry relative="1" as="geometry">
            <Array as="points">
              <mxPoint x="1140" y="630" />
              <mxPoint x="1140" y="30" />
            </Array>
          </mxGeometry>
        </mxCell>
        <mxCell id="cs07YmqNhHA9uiwkHRl_-457" value="&lt;font style=&quot;font-size: 16px;&quot;&gt;&lt;b style=&quot;&quot;&gt;term&lt;/b&gt;&lt;/font&gt;" style="rounded=1;whiteSpace=wrap;html=1;arcSize=50;fillColor=#dae8fc;strokeColor=#6c8ebf;" parent="cs07YmqNhHA9uiwkHRl_-522" vertex="1">
          <mxGeometry x="320" y="600" width="120" height="60" as="geometry" />
        </mxCell>
        <mxCell id="cs07YmqNhHA9uiwkHRl_-477" style="edgeStyle=orthogonalEdgeStyle;curved=0;rounded=1;orthogonalLoop=1;jettySize=auto;html=1;exitX=1;exitY=0.5;exitDx=0;exitDy=0;entryX=0;entryY=0.5;entryDx=0;entryDy=0;endArrow=block;endFill=1;strokeWidth=2;" parent="cs07YmqNhHA9uiwkHRl_-522" source="cs07YmqNhHA9uiwkHRl_-458" target="cs07YmqNhHA9uiwkHRl_-456" edge="1">
          <mxGeometry relative="1" as="geometry" />
        </mxCell>
        <mxCell id="cs07YmqNhHA9uiwkHRl_-479" style="edgeStyle=orthogonalEdgeStyle;curved=0;rounded=1;orthogonalLoop=1;jettySize=auto;html=1;exitX=1;exitY=0.5;exitDx=0;exitDy=0;entryX=0;entryY=0.5;entryDx=0;entryDy=0;endArrow=block;endFill=1;strokeWidth=2;" parent="cs07YmqNhHA9uiwkHRl_-522" source="cs07YmqNhHA9uiwkHRl_-458" target="cs07YmqNhHA9uiwkHRl_-459" edge="1">
          <mxGeometry relative="1" as="geometry" />
        </mxCell>
        <mxCell id="cs07YmqNhHA9uiwkHRl_-458" value="&lt;font color=&quot;#cc0000&quot; style=&quot;font-size: 16px;&quot;&gt;&lt;b&gt;&quot;(&quot;&lt;/b&gt;&lt;/font&gt;" style="rounded=1;whiteSpace=wrap;html=1;arcSize=50;" parent="cs07YmqNhHA9uiwkHRl_-522" vertex="1">
          <mxGeometry x="320" y="200" width="120" height="60" as="geometry" />
        </mxCell>
        <mxCell id="cs07YmqNhHA9uiwkHRl_-493" style="edgeStyle=orthogonalEdgeStyle;curved=0;rounded=1;orthogonalLoop=1;jettySize=auto;html=1;exitX=1;exitY=0.5;exitDx=0;exitDy=0;entryX=0;entryY=0.5;entryDx=0;entryDy=0;endArrow=block;endFill=1;strokeWidth=2;" parent="cs07YmqNhHA9uiwkHRl_-522" source="cs07YmqNhHA9uiwkHRl_-459" target="cs07YmqNhHA9uiwkHRl_-468" edge="1">
          <mxGeometry relative="1" as="geometry">
            <Array as="points">
              <mxPoint x="1140" y="230" />
              <mxPoint x="1140" y="30" />
            </Array>
          </mxGeometry>
        </mxCell>
        <mxCell id="cs07YmqNhHA9uiwkHRl_-459" value="&lt;font color=&quot;#cc0000&quot; style=&quot;font-size: 16px;&quot;&gt;&lt;b&gt;&quot;)&quot;&lt;/b&gt;&lt;/font&gt;" style="rounded=1;whiteSpace=wrap;html=1;arcSize=50;" parent="cs07YmqNhHA9uiwkHRl_-522" vertex="1">
          <mxGeometry x="640" y="200" width="120" height="60" as="geometry" />
        </mxCell>
        <mxCell id="cs07YmqNhHA9uiwkHRl_-490" style="edgeStyle=orthogonalEdgeStyle;curved=0;rounded=1;orthogonalLoop=1;jettySize=auto;html=1;exitX=1;exitY=0.5;exitDx=0;exitDy=0;entryX=0;entryY=0.5;entryDx=0;entryDy=0;endArrow=block;endFill=1;strokeWidth=2;" parent="cs07YmqNhHA9uiwkHRl_-522" source="cs07YmqNhHA9uiwkHRl_-460" target="cs07YmqNhHA9uiwkHRl_-462" edge="1">
          <mxGeometry relative="1" as="geometry" />
        </mxCell>
        <mxCell id="cs07YmqNhHA9uiwkHRl_-460" value="&lt;font color=&quot;#cc0000&quot; style=&quot;font-size: 16px;&quot;&gt;&lt;b&gt;&quot;[&quot;&lt;/b&gt;&lt;/font&gt;" style="rounded=1;whiteSpace=wrap;html=1;arcSize=50;" parent="cs07YmqNhHA9uiwkHRl_-522" vertex="1">
          <mxGeometry x="320" y="360" width="120" height="60" as="geometry" />
        </mxCell>
        <mxCell id="cs07YmqNhHA9uiwkHRl_-494" style="edgeStyle=orthogonalEdgeStyle;curved=0;rounded=1;orthogonalLoop=1;jettySize=auto;html=1;exitX=1;exitY=0.5;exitDx=0;exitDy=0;entryX=0;entryY=0.5;entryDx=0;entryDy=0;endArrow=block;endFill=1;strokeWidth=2;" parent="cs07YmqNhHA9uiwkHRl_-522" source="cs07YmqNhHA9uiwkHRl_-461" target="cs07YmqNhHA9uiwkHRl_-468" edge="1">
          <mxGeometry relative="1" as="geometry">
            <Array as="points">
              <mxPoint x="1140" y="390" />
              <mxPoint x="1140" y="30" />
            </Array>
          </mxGeometry>
        </mxCell>
        <mxCell id="cs07YmqNhHA9uiwkHRl_-461" value="&lt;font color=&quot;#cc0000&quot; style=&quot;font-size: 16px;&quot;&gt;&lt;b&gt;&quot;]&quot;&lt;/b&gt;&lt;/font&gt;" style="rounded=1;whiteSpace=wrap;html=1;arcSize=50;" parent="cs07YmqNhHA9uiwkHRl_-522" vertex="1">
          <mxGeometry x="640" y="360" width="120" height="60" as="geometry" />
        </mxCell>
        <mxCell id="cs07YmqNhHA9uiwkHRl_-491" style="edgeStyle=orthogonalEdgeStyle;curved=0;rounded=1;orthogonalLoop=1;jettySize=auto;html=1;exitX=1;exitY=0.5;exitDx=0;exitDy=0;entryX=0;entryY=0.5;entryDx=0;entryDy=0;endArrow=block;endFill=1;strokeWidth=2;" parent="cs07YmqNhHA9uiwkHRl_-522" source="cs07YmqNhHA9uiwkHRl_-462" target="cs07YmqNhHA9uiwkHRl_-461" edge="1">
          <mxGeometry relative="1" as="geometry" />
        </mxCell>
        <mxCell id="cs07YmqNhHA9uiwkHRl_-462" value="&lt;font style=&quot;font-size: 16px;&quot;&gt;&lt;b style=&quot;&quot;&gt;expression&lt;/b&gt;&lt;/font&gt;" style="rounded=1;whiteSpace=wrap;html=1;arcSize=50;fillColor=#dae8fc;strokeColor=#6c8ebf;" parent="cs07YmqNhHA9uiwkHRl_-522" vertex="1">
          <mxGeometry x="480" y="360" width="120" height="60" as="geometry" />
        </mxCell>
        <mxCell id="cs07YmqNhHA9uiwkHRl_-465" style="edgeStyle=orthogonalEdgeStyle;curved=0;rounded=1;orthogonalLoop=1;jettySize=auto;html=1;exitX=1;exitY=0.5;exitDx=0;exitDy=0;entryX=0;entryY=0.5;entryDx=0;entryDy=0;endArrow=block;endFill=1;strokeWidth=2;" parent="cs07YmqNhHA9uiwkHRl_-522" source="cs07YmqNhHA9uiwkHRl_-463" target="cs07YmqNhHA9uiwkHRl_-457" edge="1">
          <mxGeometry relative="1" as="geometry" />
        </mxCell>
        <mxCell id="cs07YmqNhHA9uiwkHRl_-463" value="&lt;font color=&quot;#cc0000&quot; style=&quot;font-size: 16px;&quot;&gt;&lt;b&gt;&quot;-&quot;&lt;/b&gt;&lt;/font&gt;" style="rounded=1;whiteSpace=wrap;html=1;arcSize=50;" parent="cs07YmqNhHA9uiwkHRl_-522" vertex="1">
          <mxGeometry x="160" y="560" width="120" height="60" as="geometry" />
        </mxCell>
        <mxCell id="cs07YmqNhHA9uiwkHRl_-466" style="edgeStyle=orthogonalEdgeStyle;curved=0;rounded=1;orthogonalLoop=1;jettySize=auto;html=1;exitX=1;exitY=0.5;exitDx=0;exitDy=0;entryX=0;entryY=0.5;entryDx=0;entryDy=0;endArrow=block;endFill=1;strokeWidth=2;" parent="cs07YmqNhHA9uiwkHRl_-522" source="cs07YmqNhHA9uiwkHRl_-464" target="cs07YmqNhHA9uiwkHRl_-457" edge="1">
          <mxGeometry relative="1" as="geometry" />
        </mxCell>
        <mxCell id="cs07YmqNhHA9uiwkHRl_-464" value="&lt;font color=&quot;#cc0000&quot; style=&quot;font-size: 16px;&quot;&gt;&lt;b&gt;&quot;~&quot;&lt;/b&gt;&lt;/font&gt;" style="rounded=1;whiteSpace=wrap;html=1;arcSize=50;" parent="cs07YmqNhHA9uiwkHRl_-522" vertex="1">
          <mxGeometry x="160" y="640" width="120" height="60" as="geometry" />
        </mxCell>
        <mxCell id="cs07YmqNhHA9uiwkHRl_-468" value="" style="shape=sumEllipse;perimeter=ellipsePerimeter;whiteSpace=wrap;html=1;backgroundOutline=1;fillColor=#dae8fc;strokeColor=#000000;" parent="cs07YmqNhHA9uiwkHRl_-522" vertex="1">
          <mxGeometry x="1201" width="60" height="60" as="geometry" />
        </mxCell>
        <mxCell id="cs07YmqNhHA9uiwkHRl_-496" style="edgeStyle=orthogonalEdgeStyle;curved=0;rounded=1;orthogonalLoop=1;jettySize=auto;html=1;exitX=1;exitY=0.5;exitDx=0;exitDy=0;entryX=0;entryY=0.5;entryDx=0;entryDy=0;endArrow=block;endFill=1;strokeWidth=2;" parent="cs07YmqNhHA9uiwkHRl_-522" source="cs07YmqNhHA9uiwkHRl_-469" target="cs07YmqNhHA9uiwkHRl_-471" edge="1">
          <mxGeometry relative="1" as="geometry" />
        </mxCell>
        <mxCell id="cs07YmqNhHA9uiwkHRl_-469" value="&lt;font style=&quot;font-size: 16px;&quot;&gt;&lt;b style=&quot;&quot;&gt;expression&lt;/b&gt;&lt;/font&gt;" style="rounded=1;whiteSpace=wrap;html=1;arcSize=50;fillColor=#dae8fc;strokeColor=#6c8ebf;" parent="cs07YmqNhHA9uiwkHRl_-522" vertex="1">
          <mxGeometry x="320" y="460" width="120" height="60" as="geometry" />
        </mxCell>
        <mxCell id="cs07YmqNhHA9uiwkHRl_-497" style="edgeStyle=orthogonalEdgeStyle;curved=0;rounded=1;orthogonalLoop=1;jettySize=auto;html=1;exitX=1;exitY=0.5;exitDx=0;exitDy=0;entryX=0;entryY=0.5;entryDx=0;entryDy=0;endArrow=block;endFill=1;strokeWidth=2;" parent="cs07YmqNhHA9uiwkHRl_-522" source="cs07YmqNhHA9uiwkHRl_-470" target="cs07YmqNhHA9uiwkHRl_-469" edge="1">
          <mxGeometry relative="1" as="geometry" />
        </mxCell>
        <mxCell id="cs07YmqNhHA9uiwkHRl_-470" value="&lt;font color=&quot;#cc0000&quot; style=&quot;font-size: 16px;&quot;&gt;&lt;b&gt;&quot;(&quot;&lt;/b&gt;&lt;/font&gt;" style="rounded=1;whiteSpace=wrap;html=1;arcSize=50;" parent="cs07YmqNhHA9uiwkHRl_-522" vertex="1">
          <mxGeometry x="160" y="460" width="120" height="60" as="geometry" />
        </mxCell>
        <mxCell id="cs07YmqNhHA9uiwkHRl_-495" style="edgeStyle=orthogonalEdgeStyle;curved=0;rounded=1;orthogonalLoop=1;jettySize=auto;html=1;exitX=1;exitY=0.5;exitDx=0;exitDy=0;entryX=0;entryY=0.5;entryDx=0;entryDy=0;endArrow=block;endFill=1;strokeWidth=2;" parent="cs07YmqNhHA9uiwkHRl_-522" source="cs07YmqNhHA9uiwkHRl_-471" target="cs07YmqNhHA9uiwkHRl_-468" edge="1">
          <mxGeometry relative="1" as="geometry">
            <Array as="points">
              <mxPoint x="1140" y="490" />
              <mxPoint x="1140" y="30" />
            </Array>
          </mxGeometry>
        </mxCell>
        <mxCell id="cs07YmqNhHA9uiwkHRl_-471" value="&lt;font color=&quot;#cc0000&quot; style=&quot;font-size: 16px;&quot;&gt;&lt;b&gt;&quot;)&quot;&lt;/b&gt;&lt;/font&gt;" style="rounded=1;whiteSpace=wrap;html=1;arcSize=50;" parent="cs07YmqNhHA9uiwkHRl_-522" vertex="1">
          <mxGeometry x="480" y="460" width="120" height="60" as="geometry" />
        </mxCell>
        <mxCell id="cs07YmqNhHA9uiwkHRl_-483" style="edgeStyle=orthogonalEdgeStyle;curved=0;rounded=1;orthogonalLoop=1;jettySize=auto;html=1;exitX=1;exitY=0.5;exitDx=0;exitDy=0;entryX=0;entryY=0.5;entryDx=0;entryDy=0;endArrow=block;endFill=1;strokeWidth=2;" parent="cs07YmqNhHA9uiwkHRl_-522" source="cs07YmqNhHA9uiwkHRl_-472" target="cs07YmqNhHA9uiwkHRl_-473" edge="1">
          <mxGeometry relative="1" as="geometry" />
        </mxCell>
        <mxCell id="cs07YmqNhHA9uiwkHRl_-472" value="&lt;font color=&quot;#cc0000&quot; style=&quot;font-size: 16px;&quot;&gt;&lt;b&gt;&quot;.&quot;&lt;/b&gt;&lt;/font&gt;" style="rounded=1;whiteSpace=wrap;html=1;arcSize=50;" parent="cs07YmqNhHA9uiwkHRl_-522" vertex="1">
          <mxGeometry x="320" y="60" width="120" height="60" as="geometry" />
        </mxCell>
        <mxCell id="cs07YmqNhHA9uiwkHRl_-484" style="edgeStyle=orthogonalEdgeStyle;curved=0;rounded=1;orthogonalLoop=1;jettySize=auto;html=1;exitX=1;exitY=0.5;exitDx=0;exitDy=0;entryX=0;entryY=0.5;entryDx=0;entryDy=0;endArrow=block;endFill=1;strokeWidth=2;" parent="cs07YmqNhHA9uiwkHRl_-522" source="cs07YmqNhHA9uiwkHRl_-473" target="cs07YmqNhHA9uiwkHRl_-475" edge="1">
          <mxGeometry relative="1" as="geometry" />
        </mxCell>
        <mxCell id="cs07YmqNhHA9uiwkHRl_-473" value="&lt;font color=&quot;#cc0000&quot; style=&quot;font-size: 16px;&quot;&gt;&lt;b&gt;IDENTIFIER&lt;/b&gt;&lt;/font&gt;" style="rounded=1;whiteSpace=wrap;html=1;arcSize=50;" parent="cs07YmqNhHA9uiwkHRl_-522" vertex="1">
          <mxGeometry x="480" y="60" width="120" height="60" as="geometry" />
        </mxCell>
        <mxCell id="cs07YmqNhHA9uiwkHRl_-481" style="edgeStyle=orthogonalEdgeStyle;curved=0;rounded=1;orthogonalLoop=1;jettySize=auto;html=1;exitX=1;exitY=0.5;exitDx=0;exitDy=0;entryX=0;entryY=0.5;entryDx=0;entryDy=0;endArrow=block;endFill=1;strokeWidth=2;" parent="cs07YmqNhHA9uiwkHRl_-522" source="cs07YmqNhHA9uiwkHRl_-474" target="cs07YmqNhHA9uiwkHRl_-476" edge="1">
          <mxGeometry relative="1" as="geometry" />
        </mxCell>
        <mxCell id="cs07YmqNhHA9uiwkHRl_-474" value="&lt;font style=&quot;font-size: 16px;&quot;&gt;&lt;b style=&quot;&quot;&gt;expressionList&lt;/b&gt;&lt;/font&gt;" style="rounded=1;whiteSpace=wrap;html=1;arcSize=50;fillColor=#dae8fc;strokeColor=#6c8ebf;" parent="cs07YmqNhHA9uiwkHRl_-522" vertex="1">
          <mxGeometry x="800" y="120" width="120" height="60" as="geometry" />
        </mxCell>
        <mxCell id="cs07YmqNhHA9uiwkHRl_-480" style="edgeStyle=orthogonalEdgeStyle;curved=0;rounded=1;orthogonalLoop=1;jettySize=auto;html=1;exitX=1;exitY=0.5;exitDx=0;exitDy=0;entryX=0;entryY=0.5;entryDx=0;entryDy=0;endArrow=block;endFill=1;strokeWidth=2;" parent="cs07YmqNhHA9uiwkHRl_-522" source="cs07YmqNhHA9uiwkHRl_-475" target="cs07YmqNhHA9uiwkHRl_-474" edge="1">
          <mxGeometry relative="1" as="geometry" />
        </mxCell>
        <mxCell id="cs07YmqNhHA9uiwkHRl_-482" style="edgeStyle=orthogonalEdgeStyle;curved=0;rounded=1;orthogonalLoop=1;jettySize=auto;html=1;exitX=1;exitY=0.5;exitDx=0;exitDy=0;entryX=0;entryY=0.5;entryDx=0;entryDy=0;endArrow=block;endFill=1;strokeWidth=2;" parent="cs07YmqNhHA9uiwkHRl_-522" source="cs07YmqNhHA9uiwkHRl_-475" target="cs07YmqNhHA9uiwkHRl_-476" edge="1">
          <mxGeometry relative="1" as="geometry" />
        </mxCell>
        <mxCell id="cs07YmqNhHA9uiwkHRl_-475" value="&lt;font color=&quot;#cc0000&quot; style=&quot;font-size: 16px;&quot;&gt;&lt;b&gt;&quot;(&quot;&lt;/b&gt;&lt;/font&gt;" style="rounded=1;whiteSpace=wrap;html=1;arcSize=50;" parent="cs07YmqNhHA9uiwkHRl_-522" vertex="1">
          <mxGeometry x="640" y="60" width="120" height="60" as="geometry" />
        </mxCell>
        <mxCell id="cs07YmqNhHA9uiwkHRl_-486" style="edgeStyle=orthogonalEdgeStyle;curved=0;rounded=1;orthogonalLoop=1;jettySize=auto;html=1;exitX=1;exitY=0.5;exitDx=0;exitDy=0;entryX=0;entryY=0.5;entryDx=0;entryDy=0;endArrow=block;endFill=1;strokeWidth=2;" parent="cs07YmqNhHA9uiwkHRl_-522" source="cs07YmqNhHA9uiwkHRl_-476" target="cs07YmqNhHA9uiwkHRl_-468" edge="1">
          <mxGeometry relative="1" as="geometry">
            <Array as="points">
              <mxPoint x="1140" y="90" />
              <mxPoint x="1140" y="30" />
            </Array>
          </mxGeometry>
        </mxCell>
        <mxCell id="cs07YmqNhHA9uiwkHRl_-476" value="&lt;font color=&quot;#cc0000&quot; style=&quot;font-size: 16px;&quot;&gt;&lt;b&gt;&quot;)&quot;&lt;/b&gt;&lt;/font&gt;" style="rounded=1;whiteSpace=wrap;html=1;arcSize=50;" parent="cs07YmqNhHA9uiwkHRl_-522" vertex="1">
          <mxGeometry x="960" y="60" width="120" height="60" as="geometry" />
        </mxCell>
        <mxCell id="cs07YmqNhHA9uiwkHRl_-523" value="&lt;b&gt;&lt;font style=&quot;font-size: 51px;&quot; color=&quot;#cc0000&quot;&gt;Jack Grammar Specification&lt;/font&gt;&lt;/b&gt;" style="text;html=1;align=center;verticalAlign=middle;whiteSpace=wrap;rounded=0;" parent="1" vertex="1">
          <mxGeometry x="706" y="-4000" width="690" height="110" as="geometry" />
        </mxCell>
        <mxCell id="zvpZ1_F1UrlzNz_fLEIg-3" value="" style="group" parent="1" vertex="1" connectable="0">
          <mxGeometry x="21" y="-2430" width="2058" height="990" as="geometry" />
        </mxCell>
        <mxCell id="cs07YmqNhHA9uiwkHRl_-200" style="edgeStyle=orthogonalEdgeStyle;curved=0;rounded=1;orthogonalLoop=1;jettySize=auto;html=1;exitX=1;exitY=0.5;exitDx=0;exitDy=0;entryX=0;entryY=0.5;entryDx=0;entryDy=0;endArrow=block;endFill=1;strokeWidth=2;" parent="zvpZ1_F1UrlzNz_fLEIg-3" source="cs07YmqNhHA9uiwkHRl_-191" target="cs07YmqNhHA9uiwkHRl_-192" edge="1">
          <mxGeometry relative="1" as="geometry" />
        </mxCell>
        <mxCell id="cs07YmqNhHA9uiwkHRl_-227" style="edgeStyle=orthogonalEdgeStyle;curved=0;rounded=1;orthogonalLoop=1;jettySize=auto;html=1;exitX=1;exitY=0.5;exitDx=0;exitDy=0;entryX=0;entryY=0.5;entryDx=0;entryDy=0;endArrow=block;endFill=1;strokeWidth=2;" parent="zvpZ1_F1UrlzNz_fLEIg-3" source="cs07YmqNhHA9uiwkHRl_-191" target="cs07YmqNhHA9uiwkHRl_-211" edge="1">
          <mxGeometry relative="1" as="geometry">
            <Array as="points">
              <mxPoint x="140" y="30" />
              <mxPoint x="140" y="230" />
            </Array>
          </mxGeometry>
        </mxCell>
        <mxCell id="cs07YmqNhHA9uiwkHRl_-268" style="edgeStyle=orthogonalEdgeStyle;curved=0;rounded=1;orthogonalLoop=1;jettySize=auto;html=1;exitX=1;exitY=0.5;exitDx=0;exitDy=0;entryX=0;entryY=0.5;entryDx=0;entryDy=0;endArrow=block;endFill=1;strokeWidth=2;" parent="zvpZ1_F1UrlzNz_fLEIg-3" source="cs07YmqNhHA9uiwkHRl_-191" target="cs07YmqNhHA9uiwkHRl_-247" edge="1">
          <mxGeometry relative="1" as="geometry">
            <Array as="points">
              <mxPoint x="140" y="30" />
              <mxPoint x="140" y="500" />
            </Array>
          </mxGeometry>
        </mxCell>
        <mxCell id="cs07YmqNhHA9uiwkHRl_-295" style="edgeStyle=orthogonalEdgeStyle;curved=0;rounded=1;orthogonalLoop=1;jettySize=auto;html=1;exitX=1;exitY=0.5;exitDx=0;exitDy=0;entryX=0;entryY=0.5;entryDx=0;entryDy=0;endArrow=block;endFill=1;strokeWidth=2;" parent="zvpZ1_F1UrlzNz_fLEIg-3" source="cs07YmqNhHA9uiwkHRl_-191" target="cs07YmqNhHA9uiwkHRl_-269" edge="1">
          <mxGeometry relative="1" as="geometry">
            <Array as="points">
              <mxPoint x="140" y="30" />
              <mxPoint x="140" y="700" />
            </Array>
          </mxGeometry>
        </mxCell>
        <mxCell id="cs07YmqNhHA9uiwkHRl_-304" style="edgeStyle=orthogonalEdgeStyle;curved=0;rounded=1;orthogonalLoop=1;jettySize=auto;html=1;exitX=1;exitY=0.5;exitDx=0;exitDy=0;entryX=0;entryY=0.5;entryDx=0;entryDy=0;endArrow=block;endFill=1;strokeWidth=2;" parent="zvpZ1_F1UrlzNz_fLEIg-3" source="cs07YmqNhHA9uiwkHRl_-191" target="cs07YmqNhHA9uiwkHRl_-296" edge="1">
          <mxGeometry relative="1" as="geometry">
            <Array as="points">
              <mxPoint x="140" y="30" />
              <mxPoint x="140" y="900" />
            </Array>
          </mxGeometry>
        </mxCell>
        <mxCell id="cs07YmqNhHA9uiwkHRl_-191" value="&lt;font size=&quot;1&quot; style=&quot;&quot;&gt;&lt;b style=&quot;font-size: 16px;&quot;&gt;statement =&lt;/b&gt;&lt;/font&gt;" style="rounded=1;whiteSpace=wrap;html=1;fillColor=#dae8fc;strokeColor=#6c8ebf;" parent="zvpZ1_F1UrlzNz_fLEIg-3" vertex="1">
          <mxGeometry width="120" height="60" as="geometry" />
        </mxCell>
        <mxCell id="cs07YmqNhHA9uiwkHRl_-201" style="edgeStyle=orthogonalEdgeStyle;curved=0;rounded=1;orthogonalLoop=1;jettySize=auto;html=1;exitX=1;exitY=0.5;exitDx=0;exitDy=0;entryX=0;entryY=0.5;entryDx=0;entryDy=0;endArrow=block;endFill=1;strokeWidth=2;" parent="zvpZ1_F1UrlzNz_fLEIg-3" source="cs07YmqNhHA9uiwkHRl_-192" target="cs07YmqNhHA9uiwkHRl_-193" edge="1">
          <mxGeometry relative="1" as="geometry" />
        </mxCell>
        <mxCell id="cs07YmqNhHA9uiwkHRl_-192" value="&lt;font color=&quot;#cc0000&quot; style=&quot;font-size: 16px;&quot;&gt;&lt;b&gt;&quot;let&quot;&lt;/b&gt;&lt;/font&gt;" style="rounded=1;whiteSpace=wrap;html=1;arcSize=50;" parent="zvpZ1_F1UrlzNz_fLEIg-3" vertex="1">
          <mxGeometry x="160" width="120" height="60" as="geometry" />
        </mxCell>
        <mxCell id="cs07YmqNhHA9uiwkHRl_-202" style="edgeStyle=orthogonalEdgeStyle;curved=0;rounded=1;orthogonalLoop=1;jettySize=auto;html=1;exitX=1;exitY=0.5;exitDx=0;exitDy=0;entryX=0;entryY=0.5;entryDx=0;entryDy=0;endArrow=block;endFill=1;strokeWidth=2;" parent="zvpZ1_F1UrlzNz_fLEIg-3" source="cs07YmqNhHA9uiwkHRl_-193" target="cs07YmqNhHA9uiwkHRl_-194" edge="1">
          <mxGeometry relative="1" as="geometry" />
        </mxCell>
        <mxCell id="cs07YmqNhHA9uiwkHRl_-203" style="edgeStyle=orthogonalEdgeStyle;curved=0;rounded=1;orthogonalLoop=1;jettySize=auto;html=1;exitX=1;exitY=0.5;exitDx=0;exitDy=0;entryX=0;entryY=0.5;entryDx=0;entryDy=0;endArrow=block;endFill=1;strokeWidth=2;" parent="zvpZ1_F1UrlzNz_fLEIg-3" source="cs07YmqNhHA9uiwkHRl_-193" target="cs07YmqNhHA9uiwkHRl_-195" edge="1">
          <mxGeometry relative="1" as="geometry" />
        </mxCell>
        <mxCell id="cs07YmqNhHA9uiwkHRl_-193" value="&lt;font color=&quot;#cc0000&quot; style=&quot;font-size: 16px;&quot;&gt;&lt;b&gt;IDENTIFIER&lt;/b&gt;&lt;/font&gt;" style="rounded=1;whiteSpace=wrap;html=1;arcSize=50;" parent="zvpZ1_F1UrlzNz_fLEIg-3" vertex="1">
          <mxGeometry x="320" width="120" height="60" as="geometry" />
        </mxCell>
        <mxCell id="cs07YmqNhHA9uiwkHRl_-206" style="edgeStyle=orthogonalEdgeStyle;curved=0;rounded=1;orthogonalLoop=1;jettySize=auto;html=1;exitX=1;exitY=0.5;exitDx=0;exitDy=0;entryX=0;entryY=0.5;entryDx=0;entryDy=0;endArrow=block;endFill=1;strokeWidth=2;" parent="zvpZ1_F1UrlzNz_fLEIg-3" source="cs07YmqNhHA9uiwkHRl_-194" target="cs07YmqNhHA9uiwkHRl_-205" edge="1">
          <mxGeometry relative="1" as="geometry" />
        </mxCell>
        <mxCell id="cs07YmqNhHA9uiwkHRl_-194" value="&lt;font color=&quot;#cc0000&quot; style=&quot;font-size: 16px;&quot;&gt;&lt;b&gt;&quot;=&quot;&lt;/b&gt;&lt;/font&gt;" style="rounded=1;whiteSpace=wrap;html=1;arcSize=50;" parent="zvpZ1_F1UrlzNz_fLEIg-3" vertex="1">
          <mxGeometry x="960" width="120" height="60" as="geometry" />
        </mxCell>
        <mxCell id="cs07YmqNhHA9uiwkHRl_-198" style="edgeStyle=orthogonalEdgeStyle;curved=0;rounded=1;orthogonalLoop=1;jettySize=auto;html=1;exitX=1;exitY=0.5;exitDx=0;exitDy=0;entryX=0;entryY=0.5;entryDx=0;entryDy=0;endArrow=block;endFill=1;strokeWidth=2;" parent="zvpZ1_F1UrlzNz_fLEIg-3" source="cs07YmqNhHA9uiwkHRl_-195" target="cs07YmqNhHA9uiwkHRl_-197" edge="1">
          <mxGeometry relative="1" as="geometry" />
        </mxCell>
        <mxCell id="cs07YmqNhHA9uiwkHRl_-195" value="&lt;font color=&quot;#cc0000&quot; style=&quot;font-size: 16px;&quot;&gt;&lt;b&gt;&quot;[&quot;&lt;/b&gt;&lt;/font&gt;" style="rounded=1;whiteSpace=wrap;html=1;arcSize=50;" parent="zvpZ1_F1UrlzNz_fLEIg-3" vertex="1">
          <mxGeometry x="480" y="60" width="120" height="60" as="geometry" />
        </mxCell>
        <mxCell id="cs07YmqNhHA9uiwkHRl_-204" style="edgeStyle=orthogonalEdgeStyle;curved=0;rounded=1;orthogonalLoop=1;jettySize=auto;html=1;exitX=1;exitY=0.5;exitDx=0;exitDy=0;entryX=0;entryY=0.5;entryDx=0;entryDy=0;endArrow=block;endFill=1;strokeWidth=2;" parent="zvpZ1_F1UrlzNz_fLEIg-3" source="cs07YmqNhHA9uiwkHRl_-196" target="cs07YmqNhHA9uiwkHRl_-194" edge="1">
          <mxGeometry relative="1" as="geometry" />
        </mxCell>
        <mxCell id="cs07YmqNhHA9uiwkHRl_-196" value="&lt;font color=&quot;#cc0000&quot; style=&quot;font-size: 16px;&quot;&gt;&lt;b&gt;&quot;]&quot;&lt;/b&gt;&lt;/font&gt;" style="rounded=1;whiteSpace=wrap;html=1;arcSize=50;" parent="zvpZ1_F1UrlzNz_fLEIg-3" vertex="1">
          <mxGeometry x="800" y="60" width="120" height="60" as="geometry" />
        </mxCell>
        <mxCell id="cs07YmqNhHA9uiwkHRl_-199" style="edgeStyle=orthogonalEdgeStyle;curved=0;rounded=1;orthogonalLoop=1;jettySize=auto;html=1;exitX=1;exitY=0.5;exitDx=0;exitDy=0;entryX=0;entryY=0.5;entryDx=0;entryDy=0;endArrow=block;endFill=1;strokeWidth=2;" parent="zvpZ1_F1UrlzNz_fLEIg-3" source="cs07YmqNhHA9uiwkHRl_-197" target="cs07YmqNhHA9uiwkHRl_-196" edge="1">
          <mxGeometry relative="1" as="geometry" />
        </mxCell>
        <mxCell id="cs07YmqNhHA9uiwkHRl_-197" value="&lt;font style=&quot;font-size: 16px;&quot;&gt;&lt;b style=&quot;&quot;&gt;expression&lt;/b&gt;&lt;/font&gt;" style="rounded=1;whiteSpace=wrap;html=1;arcSize=50;fillColor=#dae8fc;strokeColor=#6c8ebf;" parent="zvpZ1_F1UrlzNz_fLEIg-3" vertex="1">
          <mxGeometry x="640" y="60" width="120" height="60" as="geometry" />
        </mxCell>
        <mxCell id="cs07YmqNhHA9uiwkHRl_-210" style="edgeStyle=orthogonalEdgeStyle;curved=0;rounded=1;orthogonalLoop=1;jettySize=auto;html=1;exitX=1;exitY=0.5;exitDx=0;exitDy=0;entryX=0;entryY=0.5;entryDx=0;entryDy=0;endArrow=block;endFill=1;strokeWidth=2;" parent="zvpZ1_F1UrlzNz_fLEIg-3" source="cs07YmqNhHA9uiwkHRl_-205" target="cs07YmqNhHA9uiwkHRl_-208" edge="1">
          <mxGeometry relative="1" as="geometry" />
        </mxCell>
        <mxCell id="cs07YmqNhHA9uiwkHRl_-205" value="&lt;font style=&quot;font-size: 16px;&quot;&gt;&lt;b style=&quot;&quot;&gt;expression&lt;/b&gt;&lt;/font&gt;" style="rounded=1;whiteSpace=wrap;html=1;arcSize=50;fillColor=#dae8fc;strokeColor=#6c8ebf;" parent="zvpZ1_F1UrlzNz_fLEIg-3" vertex="1">
          <mxGeometry x="1120" width="120" height="60" as="geometry" />
        </mxCell>
        <mxCell id="cs07YmqNhHA9uiwkHRl_-207" style="edgeStyle=orthogonalEdgeStyle;curved=0;rounded=1;orthogonalLoop=1;jettySize=auto;html=1;exitX=1;exitY=0.5;exitDx=0;exitDy=0;entryX=0;entryY=0.5;entryDx=0;entryDy=0;endArrow=block;endFill=1;strokeWidth=2;" parent="zvpZ1_F1UrlzNz_fLEIg-3" source="cs07YmqNhHA9uiwkHRl_-208" target="cs07YmqNhHA9uiwkHRl_-209" edge="1">
          <mxGeometry relative="1" as="geometry" />
        </mxCell>
        <mxCell id="cs07YmqNhHA9uiwkHRl_-208" value="&lt;font color=&quot;#cc0000&quot; style=&quot;font-size: 16px;&quot;&gt;&lt;b&gt;&quot;;&quot;&lt;/b&gt;&lt;/font&gt;" style="rounded=1;whiteSpace=wrap;html=1;arcSize=50;" parent="zvpZ1_F1UrlzNz_fLEIg-3" vertex="1">
          <mxGeometry x="1280" width="120" height="60" as="geometry" />
        </mxCell>
        <mxCell id="cs07YmqNhHA9uiwkHRl_-209" value="" style="shape=sumEllipse;perimeter=ellipsePerimeter;whiteSpace=wrap;html=1;backgroundOutline=1;fillColor=#dae8fc;strokeColor=#000000;" parent="zvpZ1_F1UrlzNz_fLEIg-3" vertex="1">
          <mxGeometry x="1998" width="60" height="60" as="geometry" />
        </mxCell>
        <mxCell id="cs07YmqNhHA9uiwkHRl_-226" style="edgeStyle=orthogonalEdgeStyle;curved=0;rounded=1;orthogonalLoop=1;jettySize=auto;html=1;exitX=1;exitY=0.5;exitDx=0;exitDy=0;entryX=0;entryY=0.5;entryDx=0;entryDy=0;endArrow=block;endFill=1;strokeWidth=2;" parent="zvpZ1_F1UrlzNz_fLEIg-3" source="cs07YmqNhHA9uiwkHRl_-211" target="cs07YmqNhHA9uiwkHRl_-213" edge="1">
          <mxGeometry relative="1" as="geometry" />
        </mxCell>
        <mxCell id="cs07YmqNhHA9uiwkHRl_-211" value="&lt;font color=&quot;#cc0000&quot; style=&quot;font-size: 16px;&quot;&gt;&lt;b&gt;&quot;if&quot;&lt;/b&gt;&lt;/font&gt;" style="rounded=1;whiteSpace=wrap;html=1;arcSize=50;" parent="zvpZ1_F1UrlzNz_fLEIg-3" vertex="1">
          <mxGeometry x="160" y="200" width="120" height="60" as="geometry" />
        </mxCell>
        <mxCell id="cs07YmqNhHA9uiwkHRl_-212" style="edgeStyle=orthogonalEdgeStyle;curved=0;rounded=1;orthogonalLoop=1;jettySize=auto;html=1;exitX=1;exitY=0.5;exitDx=0;exitDy=0;entryX=0;entryY=0.5;entryDx=0;entryDy=0;endArrow=block;endFill=1;strokeWidth=2;" parent="zvpZ1_F1UrlzNz_fLEIg-3" source="cs07YmqNhHA9uiwkHRl_-213" target="cs07YmqNhHA9uiwkHRl_-216" edge="1">
          <mxGeometry relative="1" as="geometry" />
        </mxCell>
        <mxCell id="cs07YmqNhHA9uiwkHRl_-213" value="&lt;font color=&quot;#cc0000&quot; style=&quot;font-size: 16px;&quot;&gt;&lt;b&gt;&quot;(&quot;&lt;/b&gt;&lt;/font&gt;" style="rounded=1;whiteSpace=wrap;html=1;arcSize=50;" parent="zvpZ1_F1UrlzNz_fLEIg-3" vertex="1">
          <mxGeometry x="320" y="200" width="120" height="60" as="geometry" />
        </mxCell>
        <mxCell id="cs07YmqNhHA9uiwkHRl_-225" style="edgeStyle=orthogonalEdgeStyle;curved=0;rounded=1;orthogonalLoop=1;jettySize=auto;html=1;exitX=1;exitY=0.5;exitDx=0;exitDy=0;entryX=0;entryY=0.5;entryDx=0;entryDy=0;endArrow=block;endFill=1;strokeWidth=2;" parent="zvpZ1_F1UrlzNz_fLEIg-3" source="cs07YmqNhHA9uiwkHRl_-214" target="cs07YmqNhHA9uiwkHRl_-218" edge="1">
          <mxGeometry relative="1" as="geometry" />
        </mxCell>
        <mxCell id="cs07YmqNhHA9uiwkHRl_-214" value="&lt;font color=&quot;#cc0000&quot; style=&quot;font-size: 16px;&quot;&gt;&lt;b&gt;&quot;)&quot;&lt;/b&gt;&lt;/font&gt;" style="rounded=1;whiteSpace=wrap;html=1;arcSize=50;" parent="zvpZ1_F1UrlzNz_fLEIg-3" vertex="1">
          <mxGeometry x="640" y="200" width="120" height="60" as="geometry" />
        </mxCell>
        <mxCell id="cs07YmqNhHA9uiwkHRl_-215" style="edgeStyle=orthogonalEdgeStyle;curved=0;rounded=1;orthogonalLoop=1;jettySize=auto;html=1;exitX=1;exitY=0.5;exitDx=0;exitDy=0;entryX=0;entryY=0.5;entryDx=0;entryDy=0;endArrow=block;endFill=1;strokeWidth=2;" parent="zvpZ1_F1UrlzNz_fLEIg-3" source="cs07YmqNhHA9uiwkHRl_-216" target="cs07YmqNhHA9uiwkHRl_-214" edge="1">
          <mxGeometry relative="1" as="geometry" />
        </mxCell>
        <mxCell id="cs07YmqNhHA9uiwkHRl_-216" value="&lt;font style=&quot;font-size: 16px;&quot;&gt;&lt;b style=&quot;&quot;&gt;expression&lt;/b&gt;&lt;/font&gt;" style="rounded=1;whiteSpace=wrap;html=1;arcSize=50;fillColor=#dae8fc;strokeColor=#6c8ebf;" parent="zvpZ1_F1UrlzNz_fLEIg-3" vertex="1">
          <mxGeometry x="480" y="200" width="120" height="60" as="geometry" />
        </mxCell>
        <mxCell id="cs07YmqNhHA9uiwkHRl_-217" style="edgeStyle=orthogonalEdgeStyle;curved=0;rounded=1;orthogonalLoop=1;jettySize=auto;html=1;exitX=1;exitY=0.5;exitDx=0;exitDy=0;entryX=0;entryY=0.5;entryDx=0;entryDy=0;endArrow=block;endFill=1;strokeWidth=2;" parent="zvpZ1_F1UrlzNz_fLEIg-3" source="cs07YmqNhHA9uiwkHRl_-218" target="cs07YmqNhHA9uiwkHRl_-221" edge="1">
          <mxGeometry relative="1" as="geometry" />
        </mxCell>
        <mxCell id="cs07YmqNhHA9uiwkHRl_-224" style="edgeStyle=orthogonalEdgeStyle;curved=0;rounded=1;orthogonalLoop=1;jettySize=auto;html=1;exitX=1;exitY=0.5;exitDx=0;exitDy=0;entryX=0;entryY=0.5;entryDx=0;entryDy=0;endArrow=block;endFill=1;strokeWidth=2;" parent="zvpZ1_F1UrlzNz_fLEIg-3" source="cs07YmqNhHA9uiwkHRl_-218" target="cs07YmqNhHA9uiwkHRl_-219" edge="1">
          <mxGeometry relative="1" as="geometry" />
        </mxCell>
        <mxCell id="cs07YmqNhHA9uiwkHRl_-218" value="&lt;font color=&quot;#cc0000&quot; style=&quot;font-size: 16px;&quot;&gt;&lt;b&gt;&quot;{&quot;&lt;/b&gt;&lt;/font&gt;" style="rounded=1;whiteSpace=wrap;html=1;arcSize=50;" parent="zvpZ1_F1UrlzNz_fLEIg-3" vertex="1">
          <mxGeometry x="800" y="200" width="120" height="60" as="geometry" />
        </mxCell>
        <mxCell id="cs07YmqNhHA9uiwkHRl_-243" style="edgeStyle=orthogonalEdgeStyle;curved=0;rounded=1;orthogonalLoop=1;jettySize=auto;html=1;exitX=1;exitY=0.5;exitDx=0;exitDy=0;entryX=0;entryY=0.5;entryDx=0;entryDy=0;endArrow=block;endFill=1;strokeWidth=2;" parent="zvpZ1_F1UrlzNz_fLEIg-3" source="cs07YmqNhHA9uiwkHRl_-219" target="cs07YmqNhHA9uiwkHRl_-231" edge="1">
          <mxGeometry relative="1" as="geometry" />
        </mxCell>
        <mxCell id="zvpZ1_F1UrlzNz_fLEIg-1" style="edgeStyle=orthogonalEdgeStyle;rounded=1;orthogonalLoop=1;jettySize=auto;html=1;exitX=1;exitY=0.5;exitDx=0;exitDy=0;entryX=0;entryY=0.5;entryDx=0;entryDy=0;curved=0;strokeWidth=2;" parent="zvpZ1_F1UrlzNz_fLEIg-3" source="cs07YmqNhHA9uiwkHRl_-219" target="cs07YmqNhHA9uiwkHRl_-209" edge="1">
          <mxGeometry relative="1" as="geometry">
            <Array as="points">
              <mxPoint x="1940" y="230" />
              <mxPoint x="1940" y="30" />
            </Array>
          </mxGeometry>
        </mxCell>
        <mxCell id="cs07YmqNhHA9uiwkHRl_-219" value="&lt;font color=&quot;#cc0000&quot; style=&quot;font-size: 16px;&quot;&gt;&lt;b&gt;&quot;}&quot;&lt;/b&gt;&lt;/font&gt;" style="rounded=1;whiteSpace=wrap;html=1;arcSize=50;" parent="zvpZ1_F1UrlzNz_fLEIg-3" vertex="1">
          <mxGeometry x="1120" y="200" width="120" height="60" as="geometry" />
        </mxCell>
        <mxCell id="cs07YmqNhHA9uiwkHRl_-220" style="edgeStyle=orthogonalEdgeStyle;curved=0;rounded=1;orthogonalLoop=1;jettySize=auto;html=1;exitX=1;exitY=0.5;exitDx=0;exitDy=0;entryX=0;entryY=0.5;entryDx=0;entryDy=0;endArrow=block;endFill=1;strokeWidth=2;" parent="zvpZ1_F1UrlzNz_fLEIg-3" source="cs07YmqNhHA9uiwkHRl_-221" target="cs07YmqNhHA9uiwkHRl_-219" edge="1">
          <mxGeometry relative="1" as="geometry" />
        </mxCell>
        <mxCell id="cs07YmqNhHA9uiwkHRl_-221" value="&lt;font style=&quot;font-size: 16px;&quot;&gt;&lt;b style=&quot;&quot;&gt;statements&lt;/b&gt;&lt;/font&gt;" style="rounded=1;whiteSpace=wrap;html=1;arcSize=50;fillColor=#dae8fc;strokeColor=#6c8ebf;" parent="zvpZ1_F1UrlzNz_fLEIg-3" vertex="1">
          <mxGeometry x="960" y="260" width="120" height="60" as="geometry" />
        </mxCell>
        <mxCell id="cs07YmqNhHA9uiwkHRl_-228" style="edgeStyle=orthogonalEdgeStyle;curved=0;rounded=1;orthogonalLoop=1;jettySize=auto;html=1;exitX=1;exitY=0.5;exitDx=0;exitDy=0;entryX=0;entryY=0.5;entryDx=0;entryDy=0;endArrow=block;endFill=1;strokeWidth=2;" parent="zvpZ1_F1UrlzNz_fLEIg-3" source="cs07YmqNhHA9uiwkHRl_-221" target="cs07YmqNhHA9uiwkHRl_-221" edge="1">
          <mxGeometry relative="1" as="geometry">
            <Array as="points">
              <mxPoint x="1099" y="290" />
              <mxPoint x="1099" y="340" />
              <mxPoint x="939" y="340" />
              <mxPoint x="939" y="290" />
            </Array>
          </mxGeometry>
        </mxCell>
        <mxCell id="cs07YmqNhHA9uiwkHRl_-244" style="edgeStyle=orthogonalEdgeStyle;curved=0;rounded=1;orthogonalLoop=1;jettySize=auto;html=1;exitX=1;exitY=0.5;exitDx=0;exitDy=0;entryX=0;entryY=0.5;entryDx=0;entryDy=0;endArrow=block;endFill=1;strokeWidth=2;" parent="zvpZ1_F1UrlzNz_fLEIg-3" source="cs07YmqNhHA9uiwkHRl_-231" target="cs07YmqNhHA9uiwkHRl_-234" edge="1">
          <mxGeometry relative="1" as="geometry" />
        </mxCell>
        <mxCell id="cs07YmqNhHA9uiwkHRl_-231" value="&lt;font color=&quot;#cc0000&quot; style=&quot;font-size: 16px;&quot;&gt;&lt;b&gt;&quot;else&quot;&lt;/b&gt;&lt;/font&gt;" style="rounded=1;whiteSpace=wrap;html=1;arcSize=50;" parent="zvpZ1_F1UrlzNz_fLEIg-3" vertex="1">
          <mxGeometry x="1280" y="270" width="120" height="60" as="geometry" />
        </mxCell>
        <mxCell id="cs07YmqNhHA9uiwkHRl_-232" style="edgeStyle=orthogonalEdgeStyle;curved=0;rounded=1;orthogonalLoop=1;jettySize=auto;html=1;exitX=1;exitY=0.5;exitDx=0;exitDy=0;entryX=0;entryY=0.5;entryDx=0;entryDy=0;endArrow=block;endFill=1;strokeWidth=2;" parent="zvpZ1_F1UrlzNz_fLEIg-3" source="cs07YmqNhHA9uiwkHRl_-234" target="cs07YmqNhHA9uiwkHRl_-237" edge="1">
          <mxGeometry relative="1" as="geometry" />
        </mxCell>
        <mxCell id="cs07YmqNhHA9uiwkHRl_-246" style="edgeStyle=orthogonalEdgeStyle;curved=0;rounded=1;orthogonalLoop=1;jettySize=auto;html=1;exitX=1;exitY=0.5;exitDx=0;exitDy=0;entryX=0;entryY=0.5;entryDx=0;entryDy=0;endArrow=block;endFill=1;strokeWidth=2;" parent="zvpZ1_F1UrlzNz_fLEIg-3" source="cs07YmqNhHA9uiwkHRl_-234" target="cs07YmqNhHA9uiwkHRl_-235" edge="1">
          <mxGeometry relative="1" as="geometry" />
        </mxCell>
        <mxCell id="cs07YmqNhHA9uiwkHRl_-234" value="&lt;font color=&quot;#cc0000&quot; style=&quot;font-size: 16px;&quot;&gt;&lt;b&gt;&quot;{&quot;&lt;/b&gt;&lt;/font&gt;" style="rounded=1;whiteSpace=wrap;html=1;arcSize=50;" parent="zvpZ1_F1UrlzNz_fLEIg-3" vertex="1">
          <mxGeometry x="1440" y="270" width="120" height="60" as="geometry" />
        </mxCell>
        <mxCell id="zvpZ1_F1UrlzNz_fLEIg-2" style="edgeStyle=orthogonalEdgeStyle;rounded=1;orthogonalLoop=1;jettySize=auto;html=1;exitX=1;exitY=0.5;exitDx=0;exitDy=0;entryX=0;entryY=0.5;entryDx=0;entryDy=0;curved=0;strokeWidth=2;" parent="zvpZ1_F1UrlzNz_fLEIg-3" source="cs07YmqNhHA9uiwkHRl_-235" target="cs07YmqNhHA9uiwkHRl_-209" edge="1">
          <mxGeometry relative="1" as="geometry">
            <Array as="points">
              <mxPoint x="1940" y="300" />
              <mxPoint x="1940" y="30" />
            </Array>
          </mxGeometry>
        </mxCell>
        <mxCell id="cs07YmqNhHA9uiwkHRl_-235" value="&lt;font color=&quot;#cc0000&quot; style=&quot;font-size: 16px;&quot;&gt;&lt;b&gt;&quot;}&quot;&lt;/b&gt;&lt;/font&gt;" style="rounded=1;whiteSpace=wrap;html=1;arcSize=50;" parent="zvpZ1_F1UrlzNz_fLEIg-3" vertex="1">
          <mxGeometry x="1760" y="270" width="120" height="60" as="geometry" />
        </mxCell>
        <mxCell id="cs07YmqNhHA9uiwkHRl_-236" style="edgeStyle=orthogonalEdgeStyle;curved=0;rounded=1;orthogonalLoop=1;jettySize=auto;html=1;exitX=1;exitY=0.5;exitDx=0;exitDy=0;entryX=0;entryY=0.5;entryDx=0;entryDy=0;endArrow=block;endFill=1;strokeWidth=2;" parent="zvpZ1_F1UrlzNz_fLEIg-3" source="cs07YmqNhHA9uiwkHRl_-237" target="cs07YmqNhHA9uiwkHRl_-235" edge="1">
          <mxGeometry relative="1" as="geometry" />
        </mxCell>
        <mxCell id="cs07YmqNhHA9uiwkHRl_-237" value="&lt;font style=&quot;font-size: 16px;&quot;&gt;&lt;b style=&quot;&quot;&gt;statements&lt;/b&gt;&lt;/font&gt;" style="rounded=1;whiteSpace=wrap;html=1;arcSize=50;fillColor=#dae8fc;strokeColor=#6c8ebf;" parent="zvpZ1_F1UrlzNz_fLEIg-3" vertex="1">
          <mxGeometry x="1600" y="330" width="120" height="60" as="geometry" />
        </mxCell>
        <mxCell id="cs07YmqNhHA9uiwkHRl_-238" style="edgeStyle=orthogonalEdgeStyle;curved=0;rounded=1;orthogonalLoop=1;jettySize=auto;html=1;exitX=1;exitY=0.5;exitDx=0;exitDy=0;entryX=0;entryY=0.5;entryDx=0;entryDy=0;endArrow=block;endFill=1;strokeWidth=2;" parent="zvpZ1_F1UrlzNz_fLEIg-3" source="cs07YmqNhHA9uiwkHRl_-237" target="cs07YmqNhHA9uiwkHRl_-237" edge="1">
          <mxGeometry relative="1" as="geometry">
            <Array as="points">
              <mxPoint x="1739" y="360" />
              <mxPoint x="1739" y="410" />
              <mxPoint x="1579" y="410" />
              <mxPoint x="1579" y="360" />
            </Array>
          </mxGeometry>
        </mxCell>
        <mxCell id="cs07YmqNhHA9uiwkHRl_-263" style="edgeStyle=orthogonalEdgeStyle;curved=0;rounded=1;orthogonalLoop=1;jettySize=auto;html=1;exitX=1;exitY=0.5;exitDx=0;exitDy=0;entryX=0;entryY=0.5;entryDx=0;entryDy=0;endArrow=block;endFill=1;strokeWidth=2;" parent="zvpZ1_F1UrlzNz_fLEIg-3" source="cs07YmqNhHA9uiwkHRl_-247" target="cs07YmqNhHA9uiwkHRl_-249" edge="1">
          <mxGeometry relative="1" as="geometry" />
        </mxCell>
        <mxCell id="cs07YmqNhHA9uiwkHRl_-247" value="&lt;font color=&quot;#cc0000&quot; style=&quot;font-size: 16px;&quot;&gt;&lt;b&gt;&quot;while&quot;&lt;/b&gt;&lt;/font&gt;" style="rounded=1;whiteSpace=wrap;html=1;arcSize=50;" parent="zvpZ1_F1UrlzNz_fLEIg-3" vertex="1">
          <mxGeometry x="160" y="470" width="120" height="60" as="geometry" />
        </mxCell>
        <mxCell id="cs07YmqNhHA9uiwkHRl_-248" style="edgeStyle=orthogonalEdgeStyle;curved=0;rounded=1;orthogonalLoop=1;jettySize=auto;html=1;exitX=1;exitY=0.5;exitDx=0;exitDy=0;entryX=0;entryY=0.5;entryDx=0;entryDy=0;endArrow=block;endFill=1;strokeWidth=2;" parent="zvpZ1_F1UrlzNz_fLEIg-3" source="cs07YmqNhHA9uiwkHRl_-249" target="cs07YmqNhHA9uiwkHRl_-252" edge="1">
          <mxGeometry relative="1" as="geometry" />
        </mxCell>
        <mxCell id="cs07YmqNhHA9uiwkHRl_-249" value="&lt;font color=&quot;#cc0000&quot; style=&quot;font-size: 16px;&quot;&gt;&lt;b&gt;&quot;(&quot;&lt;/b&gt;&lt;/font&gt;" style="rounded=1;whiteSpace=wrap;html=1;arcSize=50;" parent="zvpZ1_F1UrlzNz_fLEIg-3" vertex="1">
          <mxGeometry x="320" y="470" width="120" height="60" as="geometry" />
        </mxCell>
        <mxCell id="cs07YmqNhHA9uiwkHRl_-262" style="edgeStyle=orthogonalEdgeStyle;curved=0;rounded=1;orthogonalLoop=1;jettySize=auto;html=1;exitX=1;exitY=0.5;exitDx=0;exitDy=0;entryX=0;entryY=0.5;entryDx=0;entryDy=0;endArrow=block;endFill=1;strokeWidth=2;" parent="zvpZ1_F1UrlzNz_fLEIg-3" source="cs07YmqNhHA9uiwkHRl_-250" target="cs07YmqNhHA9uiwkHRl_-255" edge="1">
          <mxGeometry relative="1" as="geometry" />
        </mxCell>
        <mxCell id="cs07YmqNhHA9uiwkHRl_-250" value="&lt;font color=&quot;#cc0000&quot; style=&quot;font-size: 16px;&quot;&gt;&lt;b&gt;&quot;)&quot;&lt;/b&gt;&lt;/font&gt;" style="rounded=1;whiteSpace=wrap;html=1;arcSize=50;" parent="zvpZ1_F1UrlzNz_fLEIg-3" vertex="1">
          <mxGeometry x="640" y="470" width="120" height="60" as="geometry" />
        </mxCell>
        <mxCell id="cs07YmqNhHA9uiwkHRl_-251" style="edgeStyle=orthogonalEdgeStyle;curved=0;rounded=1;orthogonalLoop=1;jettySize=auto;html=1;exitX=1;exitY=0.5;exitDx=0;exitDy=0;entryX=0;entryY=0.5;entryDx=0;entryDy=0;endArrow=block;endFill=1;strokeWidth=2;" parent="zvpZ1_F1UrlzNz_fLEIg-3" source="cs07YmqNhHA9uiwkHRl_-252" target="cs07YmqNhHA9uiwkHRl_-250" edge="1">
          <mxGeometry relative="1" as="geometry" />
        </mxCell>
        <mxCell id="cs07YmqNhHA9uiwkHRl_-252" value="&lt;font style=&quot;font-size: 16px;&quot;&gt;&lt;b style=&quot;&quot;&gt;expression&lt;/b&gt;&lt;/font&gt;" style="rounded=1;whiteSpace=wrap;html=1;arcSize=50;fillColor=#dae8fc;strokeColor=#6c8ebf;" parent="zvpZ1_F1UrlzNz_fLEIg-3" vertex="1">
          <mxGeometry x="480" y="470" width="120" height="60" as="geometry" />
        </mxCell>
        <mxCell id="cs07YmqNhHA9uiwkHRl_-253" style="edgeStyle=orthogonalEdgeStyle;curved=0;rounded=1;orthogonalLoop=1;jettySize=auto;html=1;exitX=1;exitY=0.5;exitDx=0;exitDy=0;entryX=0;entryY=0.5;entryDx=0;entryDy=0;endArrow=block;endFill=1;strokeWidth=2;" parent="zvpZ1_F1UrlzNz_fLEIg-3" source="cs07YmqNhHA9uiwkHRl_-255" target="cs07YmqNhHA9uiwkHRl_-258" edge="1">
          <mxGeometry relative="1" as="geometry" />
        </mxCell>
        <mxCell id="cs07YmqNhHA9uiwkHRl_-254" style="edgeStyle=orthogonalEdgeStyle;curved=0;rounded=1;orthogonalLoop=1;jettySize=auto;html=1;exitX=1;exitY=0.5;exitDx=0;exitDy=0;entryX=0;entryY=0.5;entryDx=0;entryDy=0;endArrow=block;endFill=1;strokeWidth=2;" parent="zvpZ1_F1UrlzNz_fLEIg-3" source="cs07YmqNhHA9uiwkHRl_-255" target="cs07YmqNhHA9uiwkHRl_-256" edge="1">
          <mxGeometry relative="1" as="geometry" />
        </mxCell>
        <mxCell id="cs07YmqNhHA9uiwkHRl_-255" value="&lt;font color=&quot;#cc0000&quot; style=&quot;font-size: 16px;&quot;&gt;&lt;b&gt;&quot;{&quot;&lt;/b&gt;&lt;/font&gt;" style="rounded=1;whiteSpace=wrap;html=1;arcSize=50;" parent="zvpZ1_F1UrlzNz_fLEIg-3" vertex="1">
          <mxGeometry x="800" y="470" width="120" height="60" as="geometry" />
        </mxCell>
        <mxCell id="cs07YmqNhHA9uiwkHRl_-261" style="edgeStyle=orthogonalEdgeStyle;curved=0;rounded=1;orthogonalLoop=1;jettySize=auto;html=1;exitX=1;exitY=0.5;exitDx=0;exitDy=0;endArrow=block;endFill=1;strokeWidth=2;entryX=0;entryY=0.5;entryDx=0;entryDy=0;" parent="zvpZ1_F1UrlzNz_fLEIg-3" source="cs07YmqNhHA9uiwkHRl_-256" target="cs07YmqNhHA9uiwkHRl_-209" edge="1">
          <mxGeometry relative="1" as="geometry">
            <mxPoint x="1350" y="500" as="targetPoint" />
            <Array as="points">
              <mxPoint x="1940" y="500" />
              <mxPoint x="1940" y="30" />
            </Array>
          </mxGeometry>
        </mxCell>
        <mxCell id="cs07YmqNhHA9uiwkHRl_-256" value="&lt;font color=&quot;#cc0000&quot; style=&quot;font-size: 16px;&quot;&gt;&lt;b&gt;&quot;}&quot;&lt;/b&gt;&lt;/font&gt;" style="rounded=1;whiteSpace=wrap;html=1;arcSize=50;" parent="zvpZ1_F1UrlzNz_fLEIg-3" vertex="1">
          <mxGeometry x="1120" y="470" width="120" height="60" as="geometry" />
        </mxCell>
        <mxCell id="cs07YmqNhHA9uiwkHRl_-257" style="edgeStyle=orthogonalEdgeStyle;curved=0;rounded=1;orthogonalLoop=1;jettySize=auto;html=1;exitX=1;exitY=0.5;exitDx=0;exitDy=0;entryX=0;entryY=0.5;entryDx=0;entryDy=0;endArrow=block;endFill=1;strokeWidth=2;" parent="zvpZ1_F1UrlzNz_fLEIg-3" source="cs07YmqNhHA9uiwkHRl_-258" target="cs07YmqNhHA9uiwkHRl_-256" edge="1">
          <mxGeometry relative="1" as="geometry" />
        </mxCell>
        <mxCell id="cs07YmqNhHA9uiwkHRl_-258" value="&lt;font style=&quot;font-size: 16px;&quot;&gt;&lt;b style=&quot;&quot;&gt;statements&lt;/b&gt;&lt;/font&gt;" style="rounded=1;whiteSpace=wrap;html=1;arcSize=50;fillColor=#dae8fc;strokeColor=#6c8ebf;" parent="zvpZ1_F1UrlzNz_fLEIg-3" vertex="1">
          <mxGeometry x="960" y="530" width="120" height="60" as="geometry" />
        </mxCell>
        <mxCell id="cs07YmqNhHA9uiwkHRl_-259" style="edgeStyle=orthogonalEdgeStyle;curved=0;rounded=1;orthogonalLoop=1;jettySize=auto;html=1;exitX=1;exitY=0.5;exitDx=0;exitDy=0;entryX=0;entryY=0.5;entryDx=0;entryDy=0;endArrow=block;endFill=1;strokeWidth=2;" parent="zvpZ1_F1UrlzNz_fLEIg-3" source="cs07YmqNhHA9uiwkHRl_-258" target="cs07YmqNhHA9uiwkHRl_-258" edge="1">
          <mxGeometry relative="1" as="geometry">
            <Array as="points">
              <mxPoint x="1099" y="560" />
              <mxPoint x="1099" y="610" />
              <mxPoint x="939" y="610" />
              <mxPoint x="939" y="560" />
            </Array>
          </mxGeometry>
        </mxCell>
        <mxCell id="cs07YmqNhHA9uiwkHRl_-277" style="edgeStyle=orthogonalEdgeStyle;curved=0;rounded=1;orthogonalLoop=1;jettySize=auto;html=1;exitX=1;exitY=0.5;exitDx=0;exitDy=0;entryX=0;entryY=0.5;entryDx=0;entryDy=0;endArrow=block;endFill=1;strokeWidth=2;" parent="zvpZ1_F1UrlzNz_fLEIg-3" source="cs07YmqNhHA9uiwkHRl_-269" target="cs07YmqNhHA9uiwkHRl_-270" edge="1">
          <mxGeometry relative="1" as="geometry" />
        </mxCell>
        <mxCell id="cs07YmqNhHA9uiwkHRl_-269" value="&lt;font color=&quot;#cc0000&quot; style=&quot;font-size: 16px;&quot;&gt;&lt;b&gt;&quot;do&quot;&lt;/b&gt;&lt;/font&gt;" style="rounded=1;whiteSpace=wrap;html=1;arcSize=50;" parent="zvpZ1_F1UrlzNz_fLEIg-3" vertex="1">
          <mxGeometry x="160" y="670" width="120" height="60" as="geometry" />
        </mxCell>
        <mxCell id="cs07YmqNhHA9uiwkHRl_-278" style="edgeStyle=orthogonalEdgeStyle;curved=0;rounded=1;orthogonalLoop=1;jettySize=auto;html=1;exitX=1;exitY=0.5;exitDx=0;exitDy=0;entryX=0;entryY=0.5;entryDx=0;entryDy=0;endArrow=block;endFill=1;strokeWidth=2;" parent="zvpZ1_F1UrlzNz_fLEIg-3" source="cs07YmqNhHA9uiwkHRl_-270" target="cs07YmqNhHA9uiwkHRl_-272" edge="1">
          <mxGeometry relative="1" as="geometry" />
        </mxCell>
        <mxCell id="cs07YmqNhHA9uiwkHRl_-287" style="edgeStyle=orthogonalEdgeStyle;curved=0;rounded=1;orthogonalLoop=1;jettySize=auto;html=1;exitX=1;exitY=0.5;exitDx=0;exitDy=0;entryX=0;entryY=0.5;entryDx=0;entryDy=0;endArrow=block;endFill=1;strokeWidth=2;" parent="zvpZ1_F1UrlzNz_fLEIg-3" source="cs07YmqNhHA9uiwkHRl_-270" target="cs07YmqNhHA9uiwkHRl_-279" edge="1">
          <mxGeometry relative="1" as="geometry" />
        </mxCell>
        <mxCell id="cs07YmqNhHA9uiwkHRl_-270" value="&lt;font color=&quot;#cc0000&quot; style=&quot;font-size: 16px;&quot;&gt;&lt;b&gt;IDENTIFIER&lt;/b&gt;&lt;/font&gt;" style="rounded=1;whiteSpace=wrap;html=1;arcSize=50;" parent="zvpZ1_F1UrlzNz_fLEIg-3" vertex="1">
          <mxGeometry x="320" y="670" width="120" height="60" as="geometry" />
        </mxCell>
        <mxCell id="cs07YmqNhHA9uiwkHRl_-271" style="edgeStyle=orthogonalEdgeStyle;curved=0;rounded=1;orthogonalLoop=1;jettySize=auto;html=1;exitX=1;exitY=0.5;exitDx=0;exitDy=0;entryX=0;entryY=0.5;entryDx=0;entryDy=0;endArrow=block;endFill=1;strokeWidth=2;" parent="zvpZ1_F1UrlzNz_fLEIg-3" source="cs07YmqNhHA9uiwkHRl_-272" target="cs07YmqNhHA9uiwkHRl_-275" edge="1">
          <mxGeometry relative="1" as="geometry" />
        </mxCell>
        <mxCell id="cs07YmqNhHA9uiwkHRl_-276" style="edgeStyle=orthogonalEdgeStyle;curved=0;rounded=1;orthogonalLoop=1;jettySize=auto;html=1;exitX=1;exitY=0.5;exitDx=0;exitDy=0;entryX=0;entryY=0.5;entryDx=0;entryDy=0;endArrow=block;endFill=1;strokeWidth=2;" parent="zvpZ1_F1UrlzNz_fLEIg-3" source="cs07YmqNhHA9uiwkHRl_-272" target="cs07YmqNhHA9uiwkHRl_-273" edge="1">
          <mxGeometry relative="1" as="geometry" />
        </mxCell>
        <mxCell id="cs07YmqNhHA9uiwkHRl_-272" value="&lt;font color=&quot;#cc0000&quot; style=&quot;font-size: 16px;&quot;&gt;&lt;b&gt;&quot;(&quot;&lt;/b&gt;&lt;/font&gt;" style="rounded=1;whiteSpace=wrap;html=1;arcSize=50;" parent="zvpZ1_F1UrlzNz_fLEIg-3" vertex="1">
          <mxGeometry x="800" y="670" width="120" height="60" as="geometry" />
        </mxCell>
        <mxCell id="cs07YmqNhHA9uiwkHRl_-293" style="edgeStyle=orthogonalEdgeStyle;curved=0;rounded=1;orthogonalLoop=1;jettySize=auto;html=1;exitX=1;exitY=0.5;exitDx=0;exitDy=0;entryX=0;entryY=0.5;entryDx=0;entryDy=0;endArrow=block;endFill=1;strokeWidth=2;" parent="zvpZ1_F1UrlzNz_fLEIg-3" source="cs07YmqNhHA9uiwkHRl_-273" target="cs07YmqNhHA9uiwkHRl_-291" edge="1">
          <mxGeometry relative="1" as="geometry" />
        </mxCell>
        <mxCell id="cs07YmqNhHA9uiwkHRl_-273" value="&lt;font color=&quot;#cc0000&quot; style=&quot;font-size: 16px;&quot;&gt;&lt;b&gt;&quot;)&quot;&lt;/b&gt;&lt;/font&gt;" style="rounded=1;whiteSpace=wrap;html=1;arcSize=50;" parent="zvpZ1_F1UrlzNz_fLEIg-3" vertex="1">
          <mxGeometry x="1120" y="670" width="120" height="60" as="geometry" />
        </mxCell>
        <mxCell id="cs07YmqNhHA9uiwkHRl_-274" style="edgeStyle=orthogonalEdgeStyle;curved=0;rounded=1;orthogonalLoop=1;jettySize=auto;html=1;exitX=1;exitY=0.5;exitDx=0;exitDy=0;entryX=0;entryY=0.5;entryDx=0;entryDy=0;endArrow=block;endFill=1;strokeWidth=2;" parent="zvpZ1_F1UrlzNz_fLEIg-3" source="cs07YmqNhHA9uiwkHRl_-275" target="cs07YmqNhHA9uiwkHRl_-273" edge="1">
          <mxGeometry relative="1" as="geometry" />
        </mxCell>
        <mxCell id="cs07YmqNhHA9uiwkHRl_-275" value="&lt;font style=&quot;font-size: 16px;&quot;&gt;&lt;b style=&quot;&quot;&gt;expressionList&lt;/b&gt;&lt;/font&gt;" style="rounded=1;whiteSpace=wrap;html=1;arcSize=50;fillColor=#dae8fc;strokeColor=#6c8ebf;" parent="zvpZ1_F1UrlzNz_fLEIg-3" vertex="1">
          <mxGeometry x="960" y="730" width="120" height="60" as="geometry" />
        </mxCell>
        <mxCell id="cs07YmqNhHA9uiwkHRl_-288" style="edgeStyle=orthogonalEdgeStyle;curved=0;rounded=1;orthogonalLoop=1;jettySize=auto;html=1;exitX=1;exitY=0.5;exitDx=0;exitDy=0;endArrow=block;endFill=1;strokeWidth=2;" parent="zvpZ1_F1UrlzNz_fLEIg-3" source="cs07YmqNhHA9uiwkHRl_-279" target="cs07YmqNhHA9uiwkHRl_-280" edge="1">
          <mxGeometry relative="1" as="geometry" />
        </mxCell>
        <mxCell id="cs07YmqNhHA9uiwkHRl_-279" value="&lt;font color=&quot;#cc0000&quot; style=&quot;font-size: 16px;&quot;&gt;&lt;b&gt;&quot;.&quot;&lt;/b&gt;&lt;/font&gt;" style="rounded=1;whiteSpace=wrap;html=1;arcSize=50;" parent="zvpZ1_F1UrlzNz_fLEIg-3" vertex="1">
          <mxGeometry x="480" y="730" width="120" height="60" as="geometry" />
        </mxCell>
        <mxCell id="cs07YmqNhHA9uiwkHRl_-289" style="edgeStyle=orthogonalEdgeStyle;curved=0;rounded=1;orthogonalLoop=1;jettySize=auto;html=1;exitX=1;exitY=0.5;exitDx=0;exitDy=0;entryX=0;entryY=0.5;entryDx=0;entryDy=0;endArrow=block;endFill=1;strokeWidth=2;" parent="zvpZ1_F1UrlzNz_fLEIg-3" source="cs07YmqNhHA9uiwkHRl_-280" target="cs07YmqNhHA9uiwkHRl_-272" edge="1">
          <mxGeometry relative="1" as="geometry" />
        </mxCell>
        <mxCell id="cs07YmqNhHA9uiwkHRl_-280" value="&lt;font color=&quot;#cc0000&quot; style=&quot;font-size: 16px;&quot;&gt;&lt;b&gt;IDENTIFIER&lt;/b&gt;&lt;/font&gt;" style="rounded=1;whiteSpace=wrap;html=1;arcSize=50;" parent="zvpZ1_F1UrlzNz_fLEIg-3" vertex="1">
          <mxGeometry x="640" y="730" width="120" height="60" as="geometry" />
        </mxCell>
        <mxCell id="cs07YmqNhHA9uiwkHRl_-290" style="edgeStyle=orthogonalEdgeStyle;curved=0;rounded=1;orthogonalLoop=1;jettySize=auto;html=1;exitX=1;exitY=0.5;exitDx=0;exitDy=0;endArrow=block;endFill=1;strokeWidth=2;entryX=0;entryY=0.5;entryDx=0;entryDy=0;" parent="zvpZ1_F1UrlzNz_fLEIg-3" source="cs07YmqNhHA9uiwkHRl_-291" target="cs07YmqNhHA9uiwkHRl_-209" edge="1">
          <mxGeometry relative="1" as="geometry">
            <mxPoint x="1520" y="700" as="targetPoint" />
            <Array as="points">
              <mxPoint x="1940" y="700" />
              <mxPoint x="1940" y="30" />
            </Array>
          </mxGeometry>
        </mxCell>
        <mxCell id="cs07YmqNhHA9uiwkHRl_-291" value="&lt;font color=&quot;#cc0000&quot; style=&quot;font-size: 16px;&quot;&gt;&lt;b&gt;&quot;;&quot;&lt;/b&gt;&lt;/font&gt;" style="rounded=1;whiteSpace=wrap;html=1;arcSize=50;" parent="zvpZ1_F1UrlzNz_fLEIg-3" vertex="1">
          <mxGeometry x="1280" y="670" width="120" height="60" as="geometry" />
        </mxCell>
        <mxCell id="cs07YmqNhHA9uiwkHRl_-301" style="edgeStyle=orthogonalEdgeStyle;curved=0;rounded=1;orthogonalLoop=1;jettySize=auto;html=1;exitX=1;exitY=0.5;exitDx=0;exitDy=0;entryX=0;entryY=0.5;entryDx=0;entryDy=0;endArrow=block;endFill=1;strokeWidth=2;" parent="zvpZ1_F1UrlzNz_fLEIg-3" source="cs07YmqNhHA9uiwkHRl_-296" target="cs07YmqNhHA9uiwkHRl_-298" edge="1">
          <mxGeometry relative="1" as="geometry" />
        </mxCell>
        <mxCell id="cs07YmqNhHA9uiwkHRl_-302" style="edgeStyle=orthogonalEdgeStyle;curved=0;rounded=1;orthogonalLoop=1;jettySize=auto;html=1;exitX=1;exitY=0.5;exitDx=0;exitDy=0;entryX=0;entryY=0.5;entryDx=0;entryDy=0;endArrow=block;endFill=1;strokeWidth=2;" parent="zvpZ1_F1UrlzNz_fLEIg-3" source="cs07YmqNhHA9uiwkHRl_-296" target="cs07YmqNhHA9uiwkHRl_-300" edge="1">
          <mxGeometry relative="1" as="geometry" />
        </mxCell>
        <mxCell id="cs07YmqNhHA9uiwkHRl_-296" value="&lt;font color=&quot;#cc0000&quot; style=&quot;font-size: 16px;&quot;&gt;&lt;b&gt;&quot;return&quot;&lt;/b&gt;&lt;/font&gt;" style="rounded=1;whiteSpace=wrap;html=1;arcSize=50;" parent="zvpZ1_F1UrlzNz_fLEIg-3" vertex="1">
          <mxGeometry x="160" y="870" width="120" height="60" as="geometry" />
        </mxCell>
        <mxCell id="cs07YmqNhHA9uiwkHRl_-297" style="edgeStyle=orthogonalEdgeStyle;curved=0;rounded=1;orthogonalLoop=1;jettySize=auto;html=1;exitX=1;exitY=0.5;exitDx=0;exitDy=0;endArrow=block;endFill=1;strokeWidth=2;entryX=0;entryY=0.5;entryDx=0;entryDy=0;" parent="zvpZ1_F1UrlzNz_fLEIg-3" source="cs07YmqNhHA9uiwkHRl_-298" target="cs07YmqNhHA9uiwkHRl_-209" edge="1">
          <mxGeometry relative="1" as="geometry">
            <mxPoint x="720" y="900" as="targetPoint" />
            <Array as="points">
              <mxPoint x="1940" y="900" />
              <mxPoint x="1940" y="30" />
            </Array>
          </mxGeometry>
        </mxCell>
        <mxCell id="cs07YmqNhHA9uiwkHRl_-298" value="&lt;font color=&quot;#cc0000&quot; style=&quot;font-size: 16px;&quot;&gt;&lt;b&gt;&quot;;&quot;&lt;/b&gt;&lt;/font&gt;" style="rounded=1;whiteSpace=wrap;html=1;arcSize=50;" parent="zvpZ1_F1UrlzNz_fLEIg-3" vertex="1">
          <mxGeometry x="480" y="870" width="120" height="60" as="geometry" />
        </mxCell>
        <mxCell id="cs07YmqNhHA9uiwkHRl_-303" style="edgeStyle=orthogonalEdgeStyle;curved=0;rounded=1;orthogonalLoop=1;jettySize=auto;html=1;exitX=1;exitY=0.5;exitDx=0;exitDy=0;entryX=0;entryY=0.5;entryDx=0;entryDy=0;endArrow=block;endFill=1;strokeWidth=2;" parent="zvpZ1_F1UrlzNz_fLEIg-3" source="cs07YmqNhHA9uiwkHRl_-300" target="cs07YmqNhHA9uiwkHRl_-298" edge="1">
          <mxGeometry relative="1" as="geometry" />
        </mxCell>
        <mxCell id="cs07YmqNhHA9uiwkHRl_-300" value="&lt;font style=&quot;font-size: 16px;&quot;&gt;&lt;b style=&quot;&quot;&gt;expression&lt;/b&gt;&lt;/font&gt;" style="rounded=1;whiteSpace=wrap;html=1;arcSize=50;fillColor=#dae8fc;strokeColor=#6c8ebf;" parent="zvpZ1_F1UrlzNz_fLEIg-3" vertex="1">
          <mxGeometry x="320" y="930" width="120" height="60" as="geometry" />
        </mxCell>
        <mxCell id="W77EUhHGtIfqhlvoM8bG-1" value="&lt;font color=&quot;#cc0000&quot; style=&quot;font-size: 16px;&quot;&gt;&lt;b&gt;terminal&lt;/b&gt;&lt;/font&gt;" style="rounded=1;whiteSpace=wrap;html=1;arcSize=50;" parent="1" vertex="1">
          <mxGeometry x="1281" y="-3850" width="120" height="60" as="geometry" />
        </mxCell>
        <mxCell id="W77EUhHGtIfqhlvoM8bG-2" value="&lt;font style=&quot;font-size: 16px;&quot;&gt;&lt;b style=&quot;&quot;&gt;non-terminal&lt;/b&gt;&lt;/font&gt;" style="rounded=1;whiteSpace=wrap;html=1;arcSize=50;fillColor=#dae8fc;strokeColor=#6c8ebf;" parent="1" vertex="1">
          <mxGeometry x="1281" y="-3770" width="120" height="60" as="geometry" />
        </mxCell>
        <mxCell id="5Gjx-M4_dTzqDZ6sx896-1" value="" style="group" vertex="1" connectable="0" parent="1">
          <mxGeometry x="21" y="-3570" width="1300" height="140" as="geometry" />
        </mxCell>
        <mxCell id="cs07YmqNhHA9uiwkHRl_-30" style="edgeStyle=orthogonalEdgeStyle;curved=0;rounded=1;orthogonalLoop=1;jettySize=auto;html=1;exitX=1;exitY=0.5;exitDx=0;exitDy=0;entryX=0;entryY=0.5;entryDx=0;entryDy=0;strokeWidth=2;endArrow=block;endFill=1;" parent="5Gjx-M4_dTzqDZ6sx896-1" source="cs07YmqNhHA9uiwkHRl_-3" target="cs07YmqNhHA9uiwkHRl_-21" edge="1">
          <mxGeometry relative="1" as="geometry" />
        </mxCell>
        <mxCell id="cs07YmqNhHA9uiwkHRl_-3" value="&lt;font style=&quot;font-size: 16px;&quot;&gt;&lt;b style=&quot;&quot;&gt;class =&lt;/b&gt;&lt;/font&gt;" style="rounded=1;whiteSpace=wrap;html=1;fillColor=#dae8fc;strokeColor=#6c8ebf;" parent="5Gjx-M4_dTzqDZ6sx896-1" vertex="1">
          <mxGeometry width="120" height="60" as="geometry" />
        </mxCell>
        <mxCell id="cs07YmqNhHA9uiwkHRl_-31" style="edgeStyle=orthogonalEdgeStyle;curved=0;rounded=1;orthogonalLoop=1;jettySize=auto;html=1;exitX=1;exitY=0.5;exitDx=0;exitDy=0;entryX=0;entryY=0.5;entryDx=0;entryDy=0;endArrow=block;endFill=1;strokeWidth=2;" parent="5Gjx-M4_dTzqDZ6sx896-1" source="cs07YmqNhHA9uiwkHRl_-21" target="cs07YmqNhHA9uiwkHRl_-22" edge="1">
          <mxGeometry relative="1" as="geometry" />
        </mxCell>
        <mxCell id="cs07YmqNhHA9uiwkHRl_-21" value="&lt;font color=&quot;#cc0000&quot; style=&quot;font-size: 16px;&quot;&gt;&lt;b&gt;&quot;class&quot;&lt;/b&gt;&lt;/font&gt;" style="rounded=1;whiteSpace=wrap;html=1;arcSize=50;" parent="5Gjx-M4_dTzqDZ6sx896-1" vertex="1">
          <mxGeometry x="160" width="120" height="60" as="geometry" />
        </mxCell>
        <mxCell id="cs07YmqNhHA9uiwkHRl_-32" style="edgeStyle=orthogonalEdgeStyle;curved=0;rounded=1;orthogonalLoop=1;jettySize=auto;html=1;exitX=1;exitY=0.5;exitDx=0;exitDy=0;entryX=0;entryY=0.5;entryDx=0;entryDy=0;endArrow=block;endFill=1;strokeWidth=2;" parent="5Gjx-M4_dTzqDZ6sx896-1" source="cs07YmqNhHA9uiwkHRl_-22" target="cs07YmqNhHA9uiwkHRl_-23" edge="1">
          <mxGeometry relative="1" as="geometry" />
        </mxCell>
        <mxCell id="cs07YmqNhHA9uiwkHRl_-22" value="&lt;font color=&quot;#cc0000&quot; style=&quot;font-size: 16px;&quot;&gt;&lt;b&gt;IDENTIFIER&lt;/b&gt;&lt;/font&gt;" style="rounded=1;whiteSpace=wrap;html=1;arcSize=50;" parent="5Gjx-M4_dTzqDZ6sx896-1" vertex="1">
          <mxGeometry x="320" width="120" height="60" as="geometry" />
        </mxCell>
        <mxCell id="cs07YmqNhHA9uiwkHRl_-33" style="edgeStyle=orthogonalEdgeStyle;curved=0;rounded=1;orthogonalLoop=1;jettySize=auto;html=1;exitX=1;exitY=0.5;exitDx=0;exitDy=0;entryX=0;entryY=0.5;entryDx=0;entryDy=0;strokeWidth=2;endArrow=block;endFill=1;" parent="5Gjx-M4_dTzqDZ6sx896-1" source="cs07YmqNhHA9uiwkHRl_-23" target="cs07YmqNhHA9uiwkHRl_-24" edge="1">
          <mxGeometry relative="1" as="geometry" />
        </mxCell>
        <mxCell id="cs07YmqNhHA9uiwkHRl_-34" style="edgeStyle=orthogonalEdgeStyle;curved=0;rounded=1;orthogonalLoop=1;jettySize=auto;html=1;exitX=1;exitY=0.5;exitDx=0;exitDy=0;entryX=0;entryY=0.5;entryDx=0;entryDy=0;strokeWidth=2;endArrow=block;endFill=1;" parent="5Gjx-M4_dTzqDZ6sx896-1" source="cs07YmqNhHA9uiwkHRl_-23" target="cs07YmqNhHA9uiwkHRl_-25" edge="1">
          <mxGeometry relative="1" as="geometry" />
        </mxCell>
        <mxCell id="bzNdEWtrxlaU01WsrSCb-1" style="edgeStyle=orthogonalEdgeStyle;rounded=1;orthogonalLoop=1;jettySize=auto;html=1;exitX=1;exitY=0.5;exitDx=0;exitDy=0;entryX=0;entryY=0.5;entryDx=0;entryDy=0;strokeColor=default;curved=0;strokeWidth=2;endArrow=block;endFill=1;" parent="5Gjx-M4_dTzqDZ6sx896-1" source="cs07YmqNhHA9uiwkHRl_-23" target="cs07YmqNhHA9uiwkHRl_-26" edge="1">
          <mxGeometry relative="1" as="geometry">
            <Array as="points">
              <mxPoint x="819" y="30" />
              <mxPoint x="819" y="90" />
            </Array>
          </mxGeometry>
        </mxCell>
        <mxCell id="cs07YmqNhHA9uiwkHRl_-23" value="&lt;font color=&quot;#cc0000&quot; style=&quot;font-size: 16px;&quot;&gt;&lt;b&gt;&quot;{&quot;&lt;/b&gt;&lt;/font&gt;" style="rounded=1;whiteSpace=wrap;html=1;arcSize=50;" parent="5Gjx-M4_dTzqDZ6sx896-1" vertex="1">
          <mxGeometry x="480" width="120" height="60" as="geometry" />
        </mxCell>
        <mxCell id="cs07YmqNhHA9uiwkHRl_-78" style="edgeStyle=orthogonalEdgeStyle;curved=0;rounded=1;orthogonalLoop=1;jettySize=auto;html=1;exitX=1;exitY=0.5;exitDx=0;exitDy=0;entryX=0;entryY=0.5;entryDx=0;entryDy=0;endArrow=block;endFill=1;strokeWidth=2;" parent="5Gjx-M4_dTzqDZ6sx896-1" source="cs07YmqNhHA9uiwkHRl_-24" target="cs07YmqNhHA9uiwkHRl_-77" edge="1">
          <mxGeometry relative="1" as="geometry" />
        </mxCell>
        <mxCell id="cs07YmqNhHA9uiwkHRl_-24" value="&lt;font color=&quot;#cc0000&quot; style=&quot;font-size: 16px;&quot;&gt;&lt;b&gt;&quot;}&quot;&lt;/b&gt;&lt;/font&gt;" style="rounded=1;whiteSpace=wrap;html=1;arcSize=50;" parent="5Gjx-M4_dTzqDZ6sx896-1" vertex="1">
          <mxGeometry x="1000" width="120" height="60" as="geometry" />
        </mxCell>
        <mxCell id="cs07YmqNhHA9uiwkHRl_-37" style="edgeStyle=orthogonalEdgeStyle;curved=0;rounded=1;orthogonalLoop=1;jettySize=auto;html=1;exitX=1;exitY=0.5;exitDx=0;exitDy=0;entryX=0;entryY=0.5;entryDx=0;entryDy=0;endArrow=block;endFill=1;strokeWidth=2;" parent="5Gjx-M4_dTzqDZ6sx896-1" source="cs07YmqNhHA9uiwkHRl_-25" target="cs07YmqNhHA9uiwkHRl_-26" edge="1">
          <mxGeometry relative="1" as="geometry" />
        </mxCell>
        <mxCell id="cs07YmqNhHA9uiwkHRl_-39" style="edgeStyle=orthogonalEdgeStyle;curved=0;rounded=1;orthogonalLoop=1;jettySize=auto;html=1;exitX=1;exitY=0.5;exitDx=0;exitDy=0;entryX=0;entryY=0.5;entryDx=0;entryDy=0;endArrow=block;endFill=1;strokeWidth=2;" parent="5Gjx-M4_dTzqDZ6sx896-1" source="cs07YmqNhHA9uiwkHRl_-25" target="cs07YmqNhHA9uiwkHRl_-24" edge="1">
          <mxGeometry relative="1" as="geometry">
            <Array as="points">
              <mxPoint x="780" y="90" />
              <mxPoint x="780" y="30" />
            </Array>
          </mxGeometry>
        </mxCell>
        <mxCell id="cs07YmqNhHA9uiwkHRl_-25" value="&lt;font style=&quot;font-size: 16px;&quot;&gt;&lt;b style=&quot;&quot;&gt;classVarDec&lt;/b&gt;&lt;/font&gt;" style="rounded=1;whiteSpace=wrap;html=1;arcSize=50;fillColor=#dae8fc;strokeColor=#6c8ebf;" parent="5Gjx-M4_dTzqDZ6sx896-1" vertex="1">
          <mxGeometry x="640" y="60" width="120" height="60" as="geometry" />
        </mxCell>
        <mxCell id="cs07YmqNhHA9uiwkHRl_-40" style="edgeStyle=orthogonalEdgeStyle;curved=0;rounded=1;orthogonalLoop=1;jettySize=auto;html=1;exitX=1;exitY=0.5;exitDx=0;exitDy=0;entryX=0;entryY=0.5;entryDx=0;entryDy=0;endArrow=block;endFill=1;strokeWidth=2;" parent="5Gjx-M4_dTzqDZ6sx896-1" source="cs07YmqNhHA9uiwkHRl_-26" target="cs07YmqNhHA9uiwkHRl_-24" edge="1">
          <mxGeometry relative="1" as="geometry" />
        </mxCell>
        <mxCell id="cs07YmqNhHA9uiwkHRl_-26" value="&lt;font size=&quot;1&quot; style=&quot;&quot;&gt;&lt;b style=&quot;font-size: 16px;&quot;&gt;subroutineDec&lt;/b&gt;&lt;/font&gt;" style="rounded=1;whiteSpace=wrap;html=1;arcSize=50;fillColor=#dae8fc;strokeColor=#6c8ebf;" parent="5Gjx-M4_dTzqDZ6sx896-1" vertex="1">
          <mxGeometry x="840" y="60" width="120" height="60" as="geometry" />
        </mxCell>
        <mxCell id="cs07YmqNhHA9uiwkHRl_-35" style="edgeStyle=orthogonalEdgeStyle;curved=0;rounded=1;orthogonalLoop=1;jettySize=auto;html=1;exitX=1;exitY=0.5;exitDx=0;exitDy=0;entryX=0;entryY=0.5;entryDx=0;entryDy=0;endArrow=block;endFill=1;strokeWidth=2;" parent="5Gjx-M4_dTzqDZ6sx896-1" source="cs07YmqNhHA9uiwkHRl_-25" target="cs07YmqNhHA9uiwkHRl_-25" edge="1">
          <mxGeometry relative="1" as="geometry">
            <Array as="points">
              <mxPoint x="780" y="90" />
              <mxPoint x="780" y="140" />
              <mxPoint x="620" y="140" />
              <mxPoint x="620" y="90" />
            </Array>
          </mxGeometry>
        </mxCell>
        <mxCell id="cs07YmqNhHA9uiwkHRl_-38" style="edgeStyle=orthogonalEdgeStyle;curved=0;rounded=1;orthogonalLoop=1;jettySize=auto;html=1;exitX=1;exitY=0.5;exitDx=0;exitDy=0;entryX=0;entryY=0.5;entryDx=0;entryDy=0;endArrow=block;endFill=1;strokeWidth=2;" parent="5Gjx-M4_dTzqDZ6sx896-1" source="cs07YmqNhHA9uiwkHRl_-26" target="cs07YmqNhHA9uiwkHRl_-26" edge="1">
          <mxGeometry relative="1" as="geometry">
            <Array as="points">
              <mxPoint x="980" y="90" />
              <mxPoint x="980" y="140" />
              <mxPoint x="820" y="140" />
              <mxPoint x="820" y="90" />
            </Array>
          </mxGeometry>
        </mxCell>
        <mxCell id="cs07YmqNhHA9uiwkHRl_-77" value="" style="shape=sumEllipse;perimeter=ellipsePerimeter;whiteSpace=wrap;html=1;backgroundOutline=1;fillColor=#dae8fc;strokeColor=#000000;" parent="5Gjx-M4_dTzqDZ6sx896-1" vertex="1">
          <mxGeometry x="1240" width="60" height="60" as="geometry" />
        </mxCell>
        <mxCell id="cs07YmqNhHA9uiwkHRl_-84" style="edgeStyle=orthogonalEdgeStyle;curved=0;rounded=1;orthogonalLoop=1;jettySize=auto;html=1;exitX=1;exitY=0.5;exitDx=0;exitDy=0;entryX=0;entryY=0.5;entryDx=0;entryDy=0;endArrow=block;endFill=1;strokeWidth=2;" parent="1" source="cs07YmqNhHA9uiwkHRl_-75" target="cs07YmqNhHA9uiwkHRl_-82" edge="1">
          <mxGeometry relative="1" as="geometry" />
        </mxCell>
        <mxCell id="cs07YmqNhHA9uiwkHRl_-85" style="edgeStyle=orthogonalEdgeStyle;curved=0;rounded=1;orthogonalLoop=1;jettySize=auto;html=1;exitX=1;exitY=0.5;exitDx=0;exitDy=0;entryX=0;entryY=0.5;entryDx=0;entryDy=0;endArrow=block;endFill=1;strokeWidth=2;" parent="1" source="cs07YmqNhHA9uiwkHRl_-75" target="cs07YmqNhHA9uiwkHRl_-81" edge="1">
          <mxGeometry relative="1" as="geometry" />
        </mxCell>
        <mxCell id="cs07YmqNhHA9uiwkHRl_-86" style="edgeStyle=orthogonalEdgeStyle;curved=0;rounded=1;orthogonalLoop=1;jettySize=auto;html=1;exitX=1;exitY=0.5;exitDx=0;exitDy=0;entryX=0;entryY=0.5;entryDx=0;entryDy=0;endArrow=block;endFill=1;strokeWidth=2;" parent="1" source="cs07YmqNhHA9uiwkHRl_-75" target="cs07YmqNhHA9uiwkHRl_-83" edge="1">
          <mxGeometry relative="1" as="geometry" />
        </mxCell>
        <mxCell id="cs07YmqNhHA9uiwkHRl_-75" value="&lt;font size=&quot;1&quot; style=&quot;&quot;&gt;&lt;b style=&quot;font-size: 15px;&quot;&gt;subroutineDec =&lt;/b&gt;&lt;/font&gt;" style="rounded=1;whiteSpace=wrap;html=1;fillColor=#dae8fc;strokeColor=#6c8ebf;" parent="1" vertex="1">
          <mxGeometry x="21" y="-3050" width="120" height="60" as="geometry" />
        </mxCell>
        <mxCell id="cs07YmqNhHA9uiwkHRl_-419" style="edgeStyle=orthogonalEdgeStyle;curved=0;rounded=1;orthogonalLoop=1;jettySize=auto;html=1;exitX=1;exitY=0.5;exitDx=0;exitDy=0;entryX=0;entryY=0.5;entryDx=0;entryDy=0;endArrow=block;endFill=1;strokeWidth=2;" parent="1" source="cs07YmqNhHA9uiwkHRl_-81" target="cs07YmqNhHA9uiwkHRl_-95" edge="1">
          <mxGeometry relative="1" as="geometry" />
        </mxCell>
        <mxCell id="cs07YmqNhHA9uiwkHRl_-423" style="edgeStyle=orthogonalEdgeStyle;curved=0;rounded=1;orthogonalLoop=1;jettySize=auto;html=1;exitX=1;exitY=0.5;exitDx=0;exitDy=0;entryX=0;entryY=0.5;entryDx=0;entryDy=0;endArrow=block;endFill=1;strokeWidth=2;" parent="1" source="cs07YmqNhHA9uiwkHRl_-81" target="cs07YmqNhHA9uiwkHRl_-417" edge="1">
          <mxGeometry relative="1" as="geometry">
            <Array as="points">
              <mxPoint x="321" y="-3100" />
              <mxPoint x="321" y="-2975" />
            </Array>
          </mxGeometry>
        </mxCell>
        <mxCell id="cs07YmqNhHA9uiwkHRl_-81" value="&lt;font color=&quot;#cc0000&quot; style=&quot;font-size: 16px;&quot;&gt;&lt;b&gt;&quot;constructor&quot;&lt;/b&gt;&lt;/font&gt;" style="rounded=1;whiteSpace=wrap;html=1;arcSize=50;" parent="1" vertex="1">
          <mxGeometry x="181" y="-3130" width="120" height="60" as="geometry" />
        </mxCell>
        <mxCell id="cs07YmqNhHA9uiwkHRl_-420" style="edgeStyle=orthogonalEdgeStyle;curved=0;rounded=1;orthogonalLoop=1;jettySize=auto;html=1;exitX=1;exitY=0.5;exitDx=0;exitDy=0;entryX=0;entryY=0.5;entryDx=0;entryDy=0;endArrow=block;endFill=1;strokeWidth=2;" parent="1" source="cs07YmqNhHA9uiwkHRl_-82" target="cs07YmqNhHA9uiwkHRl_-95" edge="1">
          <mxGeometry relative="1" as="geometry" />
        </mxCell>
        <mxCell id="cs07YmqNhHA9uiwkHRl_-421" style="edgeStyle=orthogonalEdgeStyle;curved=0;rounded=1;orthogonalLoop=1;jettySize=auto;html=1;exitX=1;exitY=0.5;exitDx=0;exitDy=0;entryX=0;entryY=0.5;entryDx=0;entryDy=0;endArrow=block;endFill=1;strokeWidth=2;" parent="1" source="cs07YmqNhHA9uiwkHRl_-82" target="cs07YmqNhHA9uiwkHRl_-417" edge="1">
          <mxGeometry relative="1" as="geometry" />
        </mxCell>
        <mxCell id="cs07YmqNhHA9uiwkHRl_-82" value="&lt;font color=&quot;#cc0000&quot; style=&quot;font-size: 16px;&quot;&gt;&lt;b&gt;&quot;function&quot;&lt;/b&gt;&lt;/font&gt;" style="rounded=1;whiteSpace=wrap;html=1;arcSize=50;" parent="1" vertex="1">
          <mxGeometry x="181" y="-3050" width="120" height="60" as="geometry" />
        </mxCell>
        <mxCell id="cs07YmqNhHA9uiwkHRl_-418" style="edgeStyle=orthogonalEdgeStyle;curved=0;rounded=1;orthogonalLoop=1;jettySize=auto;html=1;exitX=1;exitY=0.5;exitDx=0;exitDy=0;entryX=0;entryY=0.5;entryDx=0;entryDy=0;endArrow=block;endFill=1;strokeWidth=2;" parent="1" source="cs07YmqNhHA9uiwkHRl_-83" target="cs07YmqNhHA9uiwkHRl_-417" edge="1">
          <mxGeometry relative="1" as="geometry" />
        </mxCell>
        <mxCell id="cs07YmqNhHA9uiwkHRl_-422" style="edgeStyle=orthogonalEdgeStyle;curved=0;rounded=1;orthogonalLoop=1;jettySize=auto;html=1;exitX=1;exitY=0.5;exitDx=0;exitDy=0;entryX=0;entryY=0.5;entryDx=0;entryDy=0;endArrow=block;endFill=1;strokeWidth=2;" parent="1" source="cs07YmqNhHA9uiwkHRl_-83" target="cs07YmqNhHA9uiwkHRl_-95" edge="1">
          <mxGeometry relative="1" as="geometry">
            <Array as="points">
              <mxPoint x="321" y="-2940" />
              <mxPoint x="321" y="-3065" />
            </Array>
          </mxGeometry>
        </mxCell>
        <mxCell id="cs07YmqNhHA9uiwkHRl_-83" value="&lt;font color=&quot;#cc0000&quot; style=&quot;font-size: 16px;&quot;&gt;&lt;b&gt;&quot;method&quot;&lt;/b&gt;&lt;/font&gt;" style="rounded=1;whiteSpace=wrap;html=1;arcSize=50;" parent="1" vertex="1">
          <mxGeometry x="181" y="-2970" width="120" height="60" as="geometry" />
        </mxCell>
        <mxCell id="cs07YmqNhHA9uiwkHRl_-424" style="edgeStyle=orthogonalEdgeStyle;curved=0;rounded=1;orthogonalLoop=1;jettySize=auto;html=1;exitX=1;exitY=0.5;exitDx=0;exitDy=0;entryX=0;entryY=0.5;entryDx=0;entryDy=0;endArrow=block;endFill=1;strokeWidth=2;" parent="1" source="cs07YmqNhHA9uiwkHRl_-95" target="cs07YmqNhHA9uiwkHRl_-111" edge="1">
          <mxGeometry relative="1" as="geometry" />
        </mxCell>
        <mxCell id="cs07YmqNhHA9uiwkHRl_-95" value="&lt;font color=&quot;#cc0000&quot; style=&quot;font-size: 16px;&quot;&gt;&lt;b&gt;&quot;void&quot;&lt;/b&gt;&lt;/font&gt;" style="rounded=1;whiteSpace=wrap;html=1;arcSize=50;" parent="1" vertex="1">
          <mxGeometry x="341" y="-3095" width="120" height="60" as="geometry" />
        </mxCell>
        <mxCell id="cs07YmqNhHA9uiwkHRl_-117" style="edgeStyle=orthogonalEdgeStyle;curved=0;rounded=1;orthogonalLoop=1;jettySize=auto;html=1;exitX=1;exitY=0.5;exitDx=0;exitDy=0;entryX=0;entryY=0.5;entryDx=0;entryDy=0;endArrow=block;endFill=1;strokeWidth=2;" parent="1" source="cs07YmqNhHA9uiwkHRl_-111" target="cs07YmqNhHA9uiwkHRl_-114" edge="1">
          <mxGeometry relative="1" as="geometry" />
        </mxCell>
        <mxCell id="cs07YmqNhHA9uiwkHRl_-111" value="&lt;font color=&quot;#cc0000&quot; style=&quot;font-size: 16px;&quot;&gt;&lt;b&gt;IDENTIFIER&lt;/b&gt;&lt;/font&gt;" style="rounded=1;whiteSpace=wrap;html=1;arcSize=50;" parent="1" vertex="1">
          <mxGeometry x="501" y="-3050" width="120" height="60" as="geometry" />
        </mxCell>
        <mxCell id="cs07YmqNhHA9uiwkHRl_-118" style="edgeStyle=orthogonalEdgeStyle;curved=0;rounded=1;orthogonalLoop=1;jettySize=auto;html=1;exitX=1;exitY=0.5;exitDx=0;exitDy=0;entryX=0;entryY=0.5;entryDx=0;entryDy=0;endArrow=block;endFill=1;strokeWidth=2;" parent="1" source="cs07YmqNhHA9uiwkHRl_-114" target="cs07YmqNhHA9uiwkHRl_-116" edge="1">
          <mxGeometry relative="1" as="geometry" />
        </mxCell>
        <mxCell id="cs07YmqNhHA9uiwkHRl_-148" style="edgeStyle=orthogonalEdgeStyle;curved=0;rounded=1;orthogonalLoop=1;jettySize=auto;html=1;exitX=1;exitY=0.5;exitDx=0;exitDy=0;entryX=0;entryY=0.5;entryDx=0;entryDy=0;endArrow=block;endFill=1;strokeWidth=2;" parent="1" source="cs07YmqNhHA9uiwkHRl_-114" target="cs07YmqNhHA9uiwkHRl_-115" edge="1">
          <mxGeometry relative="1" as="geometry" />
        </mxCell>
        <mxCell id="cs07YmqNhHA9uiwkHRl_-114" value="&lt;font color=&quot;#cc0000&quot; style=&quot;font-size: 16px;&quot;&gt;&lt;b&gt;&quot;(&quot;&lt;/b&gt;&lt;/font&gt;" style="rounded=1;whiteSpace=wrap;html=1;arcSize=50;" parent="1" vertex="1">
          <mxGeometry x="661" y="-3050" width="120" height="60" as="geometry" />
        </mxCell>
        <mxCell id="cs07YmqNhHA9uiwkHRl_-122" style="edgeStyle=orthogonalEdgeStyle;curved=0;rounded=1;orthogonalLoop=1;jettySize=auto;html=1;exitX=1;exitY=0.5;exitDx=0;exitDy=0;entryX=0;entryY=0.5;entryDx=0;entryDy=0;endArrow=block;endFill=1;strokeWidth=2;" parent="1" source="cs07YmqNhHA9uiwkHRl_-115" target="cs07YmqNhHA9uiwkHRl_-121" edge="1">
          <mxGeometry relative="1" as="geometry" />
        </mxCell>
        <mxCell id="cs07YmqNhHA9uiwkHRl_-115" value="&lt;font color=&quot;#cc0000&quot; style=&quot;font-size: 16px;&quot;&gt;&lt;b&gt;&quot;)&quot;&lt;/b&gt;&lt;/font&gt;" style="rounded=1;whiteSpace=wrap;html=1;arcSize=50;" parent="1" vertex="1">
          <mxGeometry x="981" y="-3050" width="120" height="60" as="geometry" />
        </mxCell>
        <mxCell id="cs07YmqNhHA9uiwkHRl_-149" style="edgeStyle=orthogonalEdgeStyle;curved=0;rounded=1;orthogonalLoop=1;jettySize=auto;html=1;exitX=1;exitY=0.5;exitDx=0;exitDy=0;entryX=0;entryY=0.5;entryDx=0;entryDy=0;endArrow=block;endFill=1;strokeWidth=2;" parent="1" source="cs07YmqNhHA9uiwkHRl_-116" target="cs07YmqNhHA9uiwkHRl_-115" edge="1">
          <mxGeometry relative="1" as="geometry">
            <Array as="points">
              <mxPoint x="961" y="-2960" />
              <mxPoint x="961" y="-3020" />
            </Array>
          </mxGeometry>
        </mxCell>
        <mxCell id="cs07YmqNhHA9uiwkHRl_-116" value="&lt;font style=&quot;font-size: 16px;&quot;&gt;&lt;b style=&quot;&quot;&gt;parameterList&lt;/b&gt;&lt;/font&gt;" style="rounded=1;whiteSpace=wrap;html=1;arcSize=50;fillColor=#dae8fc;strokeColor=#6c8ebf;" parent="1" vertex="1">
          <mxGeometry x="821" y="-2990" width="120" height="60" as="geometry" />
        </mxCell>
        <mxCell id="cs07YmqNhHA9uiwkHRl_-126" style="edgeStyle=orthogonalEdgeStyle;curved=0;rounded=1;orthogonalLoop=1;jettySize=auto;html=1;exitX=1;exitY=0.5;exitDx=0;exitDy=0;entryX=0;entryY=0.5;entryDx=0;entryDy=0;endArrow=block;endFill=1;strokeWidth=2;" parent="1" source="cs07YmqNhHA9uiwkHRl_-121" target="cs07YmqNhHA9uiwkHRl_-125" edge="1">
          <mxGeometry relative="1" as="geometry" />
        </mxCell>
        <mxCell id="cs07YmqNhHA9uiwkHRl_-133" style="edgeStyle=orthogonalEdgeStyle;curved=0;rounded=1;orthogonalLoop=1;jettySize=auto;html=1;exitX=1;exitY=0.5;exitDx=0;exitDy=0;entryX=0;entryY=0.5;entryDx=0;entryDy=0;endArrow=block;endFill=1;strokeWidth=2;" parent="1" source="cs07YmqNhHA9uiwkHRl_-121" target="cs07YmqNhHA9uiwkHRl_-129" edge="1">
          <mxGeometry relative="1" as="geometry" />
        </mxCell>
        <mxCell id="5Gjx-M4_dTzqDZ6sx896-2" style="edgeStyle=orthogonalEdgeStyle;rounded=1;orthogonalLoop=1;jettySize=auto;html=1;exitX=1;exitY=0.5;exitDx=0;exitDy=0;entryX=0;entryY=0.5;entryDx=0;entryDy=0;curved=0;strokeWidth=2;endArrow=block;endFill=1;" edge="1" parent="1" source="cs07YmqNhHA9uiwkHRl_-121" target="cs07YmqNhHA9uiwkHRl_-130">
          <mxGeometry relative="1" as="geometry">
            <Array as="points">
              <mxPoint x="1480" y="-3020" />
              <mxPoint x="1480" y="-2960" />
            </Array>
          </mxGeometry>
        </mxCell>
        <mxCell id="cs07YmqNhHA9uiwkHRl_-121" value="&lt;font color=&quot;#cc0000&quot; style=&quot;font-size: 16px;&quot;&gt;&lt;b&gt;&quot;{&quot;&lt;/b&gt;&lt;/font&gt;" style="rounded=1;whiteSpace=wrap;html=1;arcSize=50;" parent="1" vertex="1">
          <mxGeometry x="1141" y="-3050" width="120" height="60" as="geometry" />
        </mxCell>
        <mxCell id="cs07YmqNhHA9uiwkHRl_-136" style="edgeStyle=orthogonalEdgeStyle;curved=0;rounded=1;orthogonalLoop=1;jettySize=auto;html=1;exitX=1;exitY=0.5;exitDx=0;exitDy=0;endArrow=block;endFill=1;strokeWidth=2;" parent="1" source="cs07YmqNhHA9uiwkHRl_-125" target="cs07YmqNhHA9uiwkHRl_-135" edge="1">
          <mxGeometry relative="1" as="geometry" />
        </mxCell>
        <mxCell id="cs07YmqNhHA9uiwkHRl_-125" value="&lt;font color=&quot;#cc0000&quot; style=&quot;font-size: 16px;&quot;&gt;&lt;b&gt;&quot;}&quot;&lt;/b&gt;&lt;/font&gt;" style="rounded=1;whiteSpace=wrap;html=1;arcSize=50;" parent="1" vertex="1">
          <mxGeometry x="1661" y="-3050" width="120" height="60" as="geometry" />
        </mxCell>
        <mxCell id="cs07YmqNhHA9uiwkHRl_-128" style="edgeStyle=orthogonalEdgeStyle;curved=0;rounded=1;orthogonalLoop=1;jettySize=auto;html=1;exitX=1;exitY=0.5;exitDx=0;exitDy=0;entryX=0;entryY=0.5;entryDx=0;entryDy=0;endArrow=block;endFill=1;strokeWidth=2;" parent="1" source="cs07YmqNhHA9uiwkHRl_-129" target="cs07YmqNhHA9uiwkHRl_-130" edge="1">
          <mxGeometry relative="1" as="geometry" />
        </mxCell>
        <mxCell id="cs07YmqNhHA9uiwkHRl_-184" style="edgeStyle=orthogonalEdgeStyle;curved=0;rounded=1;orthogonalLoop=1;jettySize=auto;html=1;exitX=1;exitY=0.5;exitDx=0;exitDy=0;entryX=0;entryY=0.5;entryDx=0;entryDy=0;endArrow=block;endFill=1;strokeWidth=2;" parent="1" source="cs07YmqNhHA9uiwkHRl_-129" target="cs07YmqNhHA9uiwkHRl_-125" edge="1">
          <mxGeometry relative="1" as="geometry">
            <Array as="points">
              <mxPoint x="1441" y="-2960" />
              <mxPoint x="1441" y="-3020" />
            </Array>
          </mxGeometry>
        </mxCell>
        <mxCell id="cs07YmqNhHA9uiwkHRl_-129" value="&lt;font style=&quot;font-size: 16px;&quot;&gt;&lt;b style=&quot;&quot;&gt;varDec&lt;/b&gt;&lt;/font&gt;" style="rounded=1;whiteSpace=wrap;html=1;arcSize=50;fillColor=#dae8fc;strokeColor=#6c8ebf;" parent="1" vertex="1">
          <mxGeometry x="1301" y="-2990" width="120" height="60" as="geometry" />
        </mxCell>
        <mxCell id="cs07YmqNhHA9uiwkHRl_-134" style="edgeStyle=orthogonalEdgeStyle;curved=0;rounded=1;orthogonalLoop=1;jettySize=auto;html=1;exitX=1;exitY=0.5;exitDx=0;exitDy=0;entryX=0;entryY=0.5;entryDx=0;entryDy=0;endArrow=block;endFill=1;strokeWidth=2;" parent="1" source="cs07YmqNhHA9uiwkHRl_-130" target="cs07YmqNhHA9uiwkHRl_-125" edge="1">
          <mxGeometry relative="1" as="geometry" />
        </mxCell>
        <mxCell id="cs07YmqNhHA9uiwkHRl_-130" value="&lt;font size=&quot;1&quot; style=&quot;&quot;&gt;&lt;b style=&quot;font-size: 16px;&quot;&gt;statements&lt;/b&gt;&lt;/font&gt;" style="rounded=1;whiteSpace=wrap;html=1;arcSize=50;fillColor=#dae8fc;strokeColor=#6c8ebf;" parent="1" vertex="1">
          <mxGeometry x="1501" y="-2990" width="120" height="60" as="geometry" />
        </mxCell>
        <mxCell id="cs07YmqNhHA9uiwkHRl_-131" style="edgeStyle=orthogonalEdgeStyle;curved=0;rounded=1;orthogonalLoop=1;jettySize=auto;html=1;exitX=1;exitY=0.5;exitDx=0;exitDy=0;entryX=0;entryY=0.5;entryDx=0;entryDy=0;endArrow=block;endFill=1;strokeWidth=2;" parent="1" source="cs07YmqNhHA9uiwkHRl_-129" target="cs07YmqNhHA9uiwkHRl_-129" edge="1">
          <mxGeometry relative="1" as="geometry">
            <Array as="points">
              <mxPoint x="1441" y="-2960" />
              <mxPoint x="1441" y="-2910" />
              <mxPoint x="1281" y="-2910" />
              <mxPoint x="1281" y="-2960" />
            </Array>
          </mxGeometry>
        </mxCell>
        <mxCell id="cs07YmqNhHA9uiwkHRl_-132" style="edgeStyle=orthogonalEdgeStyle;curved=0;rounded=1;orthogonalLoop=1;jettySize=auto;html=1;exitX=1;exitY=0.5;exitDx=0;exitDy=0;entryX=0;entryY=0.5;entryDx=0;entryDy=0;endArrow=block;endFill=1;strokeWidth=2;" parent="1" source="cs07YmqNhHA9uiwkHRl_-130" target="cs07YmqNhHA9uiwkHRl_-130" edge="1">
          <mxGeometry relative="1" as="geometry">
            <Array as="points">
              <mxPoint x="1641" y="-2960" />
              <mxPoint x="1641" y="-2910" />
              <mxPoint x="1481" y="-2910" />
              <mxPoint x="1481" y="-2960" />
            </Array>
          </mxGeometry>
        </mxCell>
        <mxCell id="cs07YmqNhHA9uiwkHRl_-135" value="" style="shape=sumEllipse;perimeter=ellipsePerimeter;whiteSpace=wrap;html=1;backgroundOutline=1;fillColor=#dae8fc;strokeColor=#000000;" parent="1" vertex="1">
          <mxGeometry x="1901" y="-3050" width="60" height="60" as="geometry" />
        </mxCell>
        <mxCell id="cs07YmqNhHA9uiwkHRl_-425" style="edgeStyle=orthogonalEdgeStyle;curved=0;rounded=1;orthogonalLoop=1;jettySize=auto;html=1;exitX=1;exitY=0.5;exitDx=0;exitDy=0;entryX=0;entryY=0.5;entryDx=0;entryDy=0;endArrow=block;endFill=1;strokeWidth=2;" parent="1" source="cs07YmqNhHA9uiwkHRl_-417" target="cs07YmqNhHA9uiwkHRl_-111" edge="1">
          <mxGeometry relative="1" as="geometry" />
        </mxCell>
        <mxCell id="cs07YmqNhHA9uiwkHRl_-417" value="&lt;font color=&quot;#cc0000&quot; style=&quot;font-size: 16px;&quot;&gt;&lt;b&gt;TYPE&lt;/b&gt;&lt;/font&gt;" style="rounded=1;whiteSpace=wrap;html=1;arcSize=50;" parent="1" vertex="1">
          <mxGeometry x="341" y="-3005" width="120" height="60" as="geometry" />
        </mxCell>
      </root>
    </mxGraphModel>
  </diagram>
</mxfile>
